<?xml version="1.0" encoding="utf-8"?>
<!-- Generator: Adobe Illustrator 28.2.0, SVG Export Plug-In . SVG Version: 6.00 Build 0)  -->
<svg version="1.1" id="Camada_1" xmlns="http://www.w3.org/2000/svg" xmlns:xlink="http://www.w3.org/1999/xlink" x="0px" y="0px"
	 viewBox="0 0 128 35" style="enable-background:new 0 0 128 35;" xml:space="preserve">
<style type="text/css">
	.st0{fill:#F3997F;}
	.st1{fill:#FFEDCF;}
	.st2{fill:#1C1313;}
</style>
<g id="Assinatura_00000148619711616044117480000007579630722130406301_">
	<g>
		<g>
			<path class="st0" d="M32.56,35c-0.35,0-0.71-0.11-1-0.35L4.79,15.08c-0.53-0.42-0.73-1.11-0.5-1.74
				c0.23-0.63,0.83-1.05,1.51-1.05h32.59c0.65,0,1.23,0.38,1.48,0.97c0.25,0.59,0.11,1.26-0.35,1.71l-6.65,6.52
				c-0.62,0.61-1.64,0.61-2.26,0c-0.62-0.61-0.62-1.6,0-2.22l3.92-3.84h-24.2l23.24,16.79c0.69,0.54,0.8,1.53,0.24,2.2
				C33.49,34.8,33.03,35,32.56,35z"/>
		</g>
		<path class="st1" d="M32.79,34.76c-0.8,0-1.49-0.58-1.59-1.38L27.45,3.4c-2.21,0.78-6.85,3.81-9.87,15.65
			C13.71,34.23,1.54,33.01,1.41,32.99c-0.88-0.1-1.5-0.88-1.4-1.74c0.1-0.86,0.89-1.47,1.77-1.37c0.4,0.04,9.54,0.83,12.7-11.59
			C19.28-0.52,28.57-0.02,28.96,0.01l1.3,0.1L34.38,33c0.11,0.86-0.52,1.64-1.39,1.75C32.92,34.76,32.86,34.76,32.79,34.76z"/>
		<path class="st1" d="M49.82,17.67c-2.64-1.02-5.73-0.76-8.21,0.58c-1.34,0.72-2.77,1.87-2.68,3.51c0.1,1.87,2.05,2.42,3.61,2.64
			c2.35,0.33,5.62-0.04,7.25,1.79c0.61,0.69,0.88,1.61,0.6,2.36c0.06-0.16-0.05,0.11-0.06,0.12c0.02-0.05-0.25,0.39-0.19,0.3
			c-0.11,0.14-0.34,0.37-0.53,0.51c-0.39,0.29-1.04,0.52-1.59,0.65c-1.53,0.35-3.36,0.42-4.89,0.04c-0.61-0.15-1.18-0.38-1.67-0.76
			c-0.15-0.12-0.43-0.4-0.52-0.52c-0.07-0.09-0.15-0.22-0.19-0.33c0.02,0.05,0,0.12-0.03,0.18c0.99-1.77-1.77-3.35-2.76-1.58
			c-0.9,1.59-0.05,3.37,1.25,4.48c1.3,1.11,2.9,1.63,4.59,1.82c3.13,0.34,7.2-0.08,9.1-2.87c1.78-2.62,0.35-6.05-2.14-7.66
			c-1.38-0.89-3.07-1.16-4.68-1.31c-0.72-0.07-1.44-0.11-2.16-0.17c-0.7-0.06-1.37-0.29-2.06-0.36c-0.23-0.02,0.04-0.05,0.03,0.03
			c0.21,0.23,0.26,0.48,0.15,0.74c0.04-0.06,0.07-0.11,0.11-0.17c0.2-0.11,0.41-0.33,0.64-0.47c0.65-0.4,1.24-0.65,1.97-0.83
			c1.41-0.35,2.8-0.22,4.2,0.32c0.8,0.31,1.76-0.34,1.97-1.09C51.18,18.71,50.62,17.99,49.82,17.67L49.82,17.67z"/>
		<path class="st1" d="M54.41,6.03c0.29,4.18-0.34,8.39-0.34,12.57c0,4.29,0.25,8.57,0.51,12.86c0.1,1.66,2.81,2.25,3.14,0.42
			c0.56-3.11,0.81-6.5,2.54-9.25c0.5-0.79,1.36-1.94,2.41-2.03c0.22-0.02,0.46,0.06,0.68,0.09c0.29,0.03,0.28,0.09-0.05-0.01
			c0.1,0.03,0.22,0.04,0.33,0.06c0.11,0.03,0.5,0.18,0.21,0.05c-0.31-0.13,0.11,0.1,0.19,0.12c0.16,0.05-0.27-0.26-0.08-0.06
			c0.07,0.07,0.15,0.15,0.22,0.21c0.05,0.04,0.23,0.27,0.06,0.06c-0.18-0.22,0.05,0.08,0.09,0.14c0.13,0.22,0.25,0.43,0.36,0.66
			c-0.16-0.33,0.15,0.4,0.2,0.55c0.13,0.39,0.23,0.79,0.32,1.18c0.61,2.71,0.65,5.55,0.66,8.31c0.01,2.02,3.21,2.02,3.2,0
			c-0.02-2.99-0.1-6.03-0.74-8.97c-0.31-1.45-0.8-2.98-1.84-4.1c-0.6-0.65-1.41-1.09-2.29-1.24c-0.25-0.04-0.51-0.07-0.76-0.1
			c-0.55-0.06,0.56,0.08-0.21-0.03c-1.72-0.24-3.39,0.71-4.52,1.92c-2.95,3.15-3.34,7.57-4.07,11.58c1.05,0.14,2.09,0.28,3.14,0.42
			c-0.25-4.28-0.51-8.57-0.51-12.86c0-4.18,0.63-8.4,0.34-12.57C57.46,4.03,54.27,4.01,54.41,6.03L54.41,6.03z"/>
		<path class="st1" d="M73.77,26.06c2.04,0.03,4.08,0.03,6.11,0c0.9-0.01,1.79-0.03,2.69-0.06c1.13-0.03,2.41,0.02,3.11-1.03
			c1.02-1.55-0.06-3.8-1.26-4.94c-1.4-1.33-3.37-1.97-5.27-2.18c-3.53-0.38-7.15,1.37-8.47,4.69c-0.71,1.78-0.52,3.82,0.02,5.62
			c0.52,1.72,1.45,3.25,3.08,4.16c3.41,1.91,8.11,1.22,11.18-1c0.69-0.5,1.04-1.36,0.57-2.14c-0.4-0.67-1.49-1.07-2.19-0.56
			c-1.96,1.41-4.4,2.02-6.7,1.47c-1.07-0.26-1.92-0.71-2.44-1.67c-0.54-0.98-0.82-2.27-0.8-3.42c0.04-2.23,1.82-3.77,4.02-4.04
			c1.18-0.14,2.48,0.07,3.54,0.53c0.5,0.22,0.95,0.49,1.32,0.88c0.29,0.31,0.44,0.75,0.56,1.04c0,0.06,0.01,0.12,0.01,0.19
			c0.09-0.38,0.37-0.64,0.86-0.77c-0.17-0.06-0.48,0.02-0.65,0.02c-0.41,0.01-0.81,0.02-1.22,0.03c-0.9,0.02-1.79,0.04-2.69,0.05
			c-1.79,0.02-3.59,0.01-5.38-0.01C71.71,22.89,71.71,26.03,73.77,26.06L73.77,26.06z"/>
		<path class="st1" d="M88.33,18.96c0.1,4.09,0.2,8.19,0.3,12.28c1.07,0,2.13,0,3.2,0c-0.19-1.58-0.25-3.18-0.16-4.77
			c0.07-1.27,0.15-2.71,0.79-3.85c0.49-0.87,1.18-1.43,2.26-1.55c0.65-0.07,1.4-0.06,2.04,0.07c0.26,0.05,0.44,0.1,0.66,0.22
			c0.11,0.06,0,0.02,0.17,0.12c0.14,0.08,0.11,0.19,0.03,0c0.3,0.79,1.08,1.33,1.97,1.09c0.78-0.21,1.42-1.13,1.12-1.93
			c-0.78-2.03-2.81-2.65-4.86-2.72c-1.98-0.07-3.92,0.42-5.27,1.92c-1.35,1.5-1.78,3.37-1.99,5.31c-0.22,2.02-0.19,4.06,0.05,6.08
			c0.1,0.84,0.66,1.57,1.6,1.57c0.85,0,1.62-0.72,1.6-1.57c-0.1-4.09-0.2-8.19-0.3-12.28C91.48,16.94,88.29,16.94,88.33,18.96
			L88.33,18.96z"/>
	</g>
	<g>
		<g>
			<path class="st2" d="M117.18,20.59c-0.53-2.39-1.19-4.74-1.99-7.06c-0.27-0.78-1.11-1.36-1.97-1.09c-0.79,0.25-1.4,1.1-1.12,1.93
				c0.79,2.32,1.46,4.67,1.99,7.06c0.18,0.8,1.18,1.34,1.97,1.09C116.92,22.24,117.37,21.45,117.18,20.59L117.18,20.59z"/>
		</g>
		<g>
			<path class="st2" d="M122.3,19.49c-0.35-2.44-0.83-4.86-1.45-7.25c-0.21-0.79-1.16-1.35-1.97-1.09
				c-0.84,0.27-1.34,1.08-1.12,1.93c0.62,2.39,1.1,4.81,1.45,7.25c0.05,0.36,0.43,0.76,0.73,0.94c0.34,0.2,0.85,0.28,1.23,0.16
				C122.1,21.13,122.43,20.36,122.3,19.49L122.3,19.49z"/>
		</g>
		<g>
			<path class="st2" d="M109.82,24.97c1.55,4.31,6.52,5.34,10.68,4.91c2.23-0.23,4.17-1.01,5.52-2.83c1.11-1.49,1.56-3.36,1.94-5.13
				c0.17-0.83-0.25-1.69-1.12-1.93c-0.79-0.21-1.79,0.26-1.97,1.09c-0.28,1.32-0.55,2.7-1.26,3.87c-0.69,1.13-1.79,1.63-3.11,1.79
				c-2.46,0.29-6.59,0.18-7.6-2.61c-0.29-0.8-1.09-1.33-1.97-1.09C110.15,23.25,109.54,24.17,109.82,24.97L109.82,24.97z"/>
		</g>
	</g>
</g>
</svg>
