<?xml version="1.0" encoding="utf-8"?>
<!-- Generator: Adobe Illustrator 28.2.0, SVG Export Plug-In . SVG Version: 6.00 Build 0)  -->
<svg version="1.1" id="Camada_1" xmlns="http://www.w3.org/2000/svg" xmlns:xlink="http://www.w3.org/1999/xlink" x="0px" y="0px"
	 viewBox="0 0 575 122" style="enable-background:new 0 0 575 122;" xml:space="preserve">
<style type="text/css">
	.st0{fill:none;stroke:#C11821;stroke-width:4;stroke-miterlimit:10;}
	.st1{fill:none;stroke:#C11821;stroke-width:4;stroke-miterlimit:10;stroke-dasharray:11.8165,11.8165;}
	.st2{fill:#1C1313;}
	.st3{fill:#FEF1E5;}
	.st4{fill:#C01820;}
	.st5{fill:#020203;}
</style>
<g>
	<g>
		<g>
			<line class="st0" x1="2.88" y1="122" x2="2.88" y2="116"/>
			<path class="st1" d="M2.88,104.18V37.25C2.88,17.78,18.29,2,37.3,2h501.16c19.01,0,34.42,15.78,34.42,35.25v72.84"/>
			<line class="st0" x1="572.88" y1="116" x2="572.88" y2="122"/>
		</g>
	</g>
	<g>
		<g>
			<path class="st2" d="M128.23,38.87l-3.96-8.99h1.39l3.64,8.3h-0.8l3.66-8.3h1.28l-3.94,8.99H128.23z"/>
			<path class="st2" d="M137.52,38.95c-0.68,0-1.28-0.15-1.82-0.45c-0.54-0.3-0.96-0.71-1.27-1.24c-0.31-0.53-0.46-1.12-0.46-1.79
				c0-0.68,0.15-1.27,0.46-1.79s0.73-0.93,1.26-1.23s1.14-0.45,1.82-0.45c0.68,0,1.28,0.15,1.82,0.44c0.54,0.3,0.96,0.7,1.26,1.23
				s0.46,1.12,0.46,1.8s-0.15,1.28-0.46,1.8s-0.72,0.93-1.26,1.23S138.19,38.95,137.52,38.95z M137.52,37.87
				c0.44,0,0.83-0.1,1.17-0.3c0.35-0.2,0.62-0.48,0.82-0.84c0.2-0.36,0.29-0.79,0.29-1.27c0-0.49-0.1-0.91-0.29-1.27
				c-0.2-0.36-0.47-0.63-0.82-0.83c-0.35-0.2-0.74-0.3-1.17-0.3s-0.83,0.1-1.17,0.3c-0.34,0.2-0.62,0.47-0.82,0.83
				c-0.21,0.35-0.31,0.78-0.31,1.27c0,0.48,0.1,0.9,0.31,1.27c0.21,0.36,0.48,0.64,0.82,0.84
				C136.69,37.77,137.08,37.87,137.52,37.87z"/>
			<path class="st2" d="M145.72,38.95c-0.69,0-1.31-0.15-1.86-0.45c-0.54-0.3-0.97-0.71-1.28-1.23s-0.46-1.12-0.46-1.8
				s0.15-1.28,0.46-1.8s0.73-0.93,1.28-1.23c0.54-0.3,1.16-0.44,1.86-0.44c0.62,0,1.17,0.12,1.65,0.37
				c0.48,0.24,0.86,0.61,1.12,1.09l-0.94,0.6c-0.22-0.33-0.49-0.58-0.82-0.74c-0.32-0.16-0.67-0.24-1.03-0.24
				c-0.45,0-0.84,0.1-1.19,0.3c-0.35,0.2-0.63,0.47-0.83,0.83c-0.21,0.35-0.31,0.78-0.31,1.27c0,0.49,0.1,0.91,0.31,1.27
				s0.48,0.64,0.83,0.83c0.35,0.2,0.75,0.3,1.19,0.3c0.37,0,0.71-0.08,1.03-0.24c0.32-0.16,0.59-0.4,0.82-0.74l0.94,0.59
				c-0.27,0.47-0.64,0.83-1.12,1.09C146.89,38.82,146.34,38.95,145.72,38.95z"/>
			<path class="st2" d="M153.12,38.95c-0.73,0-1.37-0.15-1.92-0.45c-0.55-0.3-0.98-0.71-1.29-1.23c-0.3-0.52-0.46-1.12-0.46-1.8
				s0.15-1.28,0.44-1.8c0.3-0.52,0.7-0.93,1.22-1.23c0.52-0.3,1.1-0.44,1.75-0.44c0.66,0,1.24,0.15,1.75,0.44
				c0.5,0.29,0.9,0.7,1.19,1.23c0.29,0.53,0.43,1.14,0.43,1.84c0,0.05,0,0.11-0.01,0.18c0,0.07-0.01,0.13-0.02,0.19h-5.79v-0.89
				h5.15l-0.5,0.31c0.01-0.44-0.08-0.83-0.27-1.17s-0.45-0.61-0.78-0.8c-0.33-0.19-0.71-0.29-1.15-0.29c-0.43,0-0.81,0.1-1.14,0.29
				c-0.33,0.19-0.6,0.46-0.78,0.81s-0.28,0.74-0.28,1.19v0.21c0,0.45,0.1,0.86,0.31,1.21c0.21,0.36,0.5,0.63,0.88,0.83
				c0.38,0.2,0.81,0.3,1.3,0.3c0.4,0,0.77-0.07,1.1-0.21c0.33-0.14,0.62-0.34,0.87-0.62l0.68,0.8c-0.31,0.36-0.69,0.63-1.15,0.82
				C154.2,38.85,153.69,38.95,153.12,38.95z M150.57,31.08l1.71-1.67h1.18l1.71,1.67h-1.12l-1.7-1.41h1.03l-1.7,1.41H150.57z"/>
			<path class="st2" d="M161.41,41.36v-9.3h1.18v1.84l-0.08,1.58l0.13,1.58v4.3H161.41z M165.02,38.95c-0.57,0-1.08-0.13-1.55-0.39
				c-0.47-0.26-0.84-0.65-1.12-1.16c-0.28-0.51-0.42-1.16-0.42-1.93c0-0.77,0.13-1.41,0.41-1.93c0.27-0.51,0.64-0.9,1.1-1.16
				s0.99-0.39,1.57-0.39c0.67,0,1.26,0.15,1.77,0.44c0.51,0.29,0.92,0.7,1.22,1.21c0.3,0.52,0.45,1.12,0.45,1.82
				c0,0.69-0.15,1.3-0.45,1.82c-0.3,0.52-0.71,0.93-1.22,1.22C166.28,38.8,165.69,38.95,165.02,38.95z M164.92,37.87
				c0.44,0,0.83-0.1,1.17-0.3c0.35-0.2,0.62-0.48,0.82-0.84c0.2-0.36,0.3-0.79,0.3-1.27c0-0.49-0.1-0.91-0.3-1.27
				c-0.2-0.36-0.48-0.63-0.82-0.83c-0.35-0.2-0.74-0.3-1.17-0.3c-0.43,0-0.82,0.1-1.16,0.3c-0.35,0.2-0.62,0.47-0.82,0.83
				c-0.2,0.35-0.3,0.78-0.3,1.27c0,0.48,0.1,0.9,0.3,1.27c0.2,0.36,0.47,0.64,0.82,0.84C164.1,37.77,164.49,37.87,164.92,37.87z"/>
			<path class="st2" d="M173.08,38.95c-0.68,0-1.28-0.15-1.82-0.45c-0.54-0.3-0.96-0.71-1.27-1.24c-0.31-0.53-0.46-1.12-0.46-1.79
				c0-0.68,0.15-1.27,0.46-1.79s0.73-0.93,1.26-1.23S172.4,32,173.08,32c0.68,0,1.28,0.15,1.82,0.44c0.54,0.3,0.96,0.7,1.26,1.23
				s0.46,1.12,0.46,1.8s-0.15,1.28-0.46,1.8s-0.72,0.93-1.26,1.23S173.76,38.95,173.08,38.95z M173.08,37.87
				c0.44,0,0.83-0.1,1.17-0.3c0.35-0.2,0.62-0.48,0.82-0.84c0.2-0.36,0.29-0.79,0.29-1.27c0-0.49-0.1-0.91-0.29-1.27
				c-0.2-0.36-0.47-0.63-0.82-0.83c-0.35-0.2-0.74-0.3-1.17-0.3s-0.83,0.1-1.17,0.3c-0.34,0.2-0.62,0.47-0.82,0.83
				c-0.21,0.35-0.31,0.78-0.31,1.27c0,0.48,0.1,0.9,0.31,1.27c0.21,0.36,0.48,0.64,0.82,0.84
				C172.26,37.77,172.65,37.87,173.08,37.87z"/>
			<path class="st2" d="M181.14,38.95c-0.66,0-1.25-0.15-1.77-0.44c-0.52-0.29-0.93-0.7-1.23-1.22c-0.3-0.52-0.45-1.13-0.45-1.82
				c0-0.69,0.15-1.3,0.45-1.82c0.3-0.52,0.71-0.92,1.23-1.21c0.52-0.29,1.11-0.44,1.77-0.44c0.57,0,1.09,0.13,1.55,0.39
				c0.46,0.26,0.83,0.64,1.11,1.16c0.28,0.51,0.42,1.16,0.42,1.93c0,0.77-0.13,1.41-0.4,1.93c-0.27,0.51-0.64,0.9-1.1,1.16
				C182.26,38.82,181.73,38.95,181.14,38.95z M181.24,37.87c0.43,0,0.82-0.1,1.16-0.3c0.35-0.2,0.62-0.48,0.82-0.84
				c0.2-0.36,0.3-0.79,0.3-1.27c0-0.49-0.1-0.91-0.3-1.27c-0.2-0.36-0.48-0.63-0.82-0.83c-0.35-0.2-0.73-0.3-1.16-0.3
				c-0.44,0-0.83,0.1-1.17,0.3c-0.34,0.2-0.62,0.47-0.82,0.83c-0.21,0.35-0.31,0.78-0.31,1.27c0,0.48,0.1,0.9,0.31,1.27
				c0.21,0.36,0.48,0.64,0.82,0.84C180.41,37.77,180.81,37.87,181.24,37.87z M183.57,38.87v-1.84l0.08-1.58l-0.13-1.58v-4.53h1.23
				v9.53H183.57z"/>
			<path class="st2" d="M190.12,38.95c-0.73,0-1.37-0.15-1.92-0.45c-0.55-0.3-0.98-0.71-1.29-1.23c-0.3-0.52-0.46-1.12-0.46-1.8
				s0.15-1.28,0.44-1.8c0.3-0.52,0.7-0.93,1.22-1.23c0.52-0.3,1.1-0.44,1.75-0.44c0.66,0,1.24,0.15,1.75,0.44
				c0.5,0.29,0.9,0.7,1.19,1.23c0.29,0.53,0.43,1.14,0.43,1.84c0,0.05,0,0.11-0.01,0.18c0,0.07-0.01,0.13-0.02,0.19h-5.79v-0.89
				h5.15l-0.5,0.31c0.01-0.44-0.08-0.83-0.27-1.17s-0.45-0.61-0.78-0.8c-0.33-0.19-0.71-0.29-1.15-0.29c-0.43,0-0.81,0.1-1.14,0.29
				c-0.33,0.19-0.6,0.46-0.78,0.81s-0.28,0.74-0.28,1.19v0.21c0,0.45,0.1,0.86,0.31,1.21c0.21,0.36,0.5,0.63,0.88,0.83
				c0.38,0.2,0.81,0.3,1.3,0.3c0.4,0,0.77-0.07,1.1-0.21c0.33-0.14,0.62-0.34,0.87-0.62l0.68,0.8c-0.31,0.36-0.69,0.63-1.15,0.82
				C191.19,38.85,190.68,38.95,190.12,38.95z"/>
			<path class="st2" d="M201.37,38.95c-0.69,0-1.31-0.15-1.86-0.45c-0.54-0.3-0.97-0.71-1.28-1.23s-0.46-1.12-0.46-1.8
				s0.15-1.28,0.46-1.8s0.73-0.93,1.28-1.23c0.54-0.3,1.16-0.44,1.86-0.44c0.62,0,1.17,0.12,1.65,0.37
				c0.48,0.24,0.86,0.61,1.12,1.09l-0.94,0.6c-0.22-0.33-0.49-0.58-0.82-0.74c-0.32-0.16-0.67-0.24-1.03-0.24
				c-0.45,0-0.84,0.1-1.19,0.3c-0.35,0.2-0.63,0.47-0.83,0.83c-0.21,0.35-0.31,0.78-0.31,1.27c0,0.49,0.1,0.91,0.31,1.27
				s0.48,0.64,0.83,0.83c0.35,0.2,0.75,0.3,1.19,0.3c0.37,0,0.71-0.08,1.03-0.24c0.32-0.16,0.59-0.4,0.82-0.74l0.94,0.59
				c-0.27,0.47-0.64,0.83-1.12,1.09C202.54,38.82,201.99,38.95,201.37,38.95z"/>
			<path class="st2" d="M205.74,38.87v-9.53h1.23v9.53H205.74z"/>
			<path class="st2" d="M209.94,30.75c-0.24,0-0.44-0.08-0.6-0.23c-0.16-0.15-0.24-0.34-0.24-0.57c0-0.23,0.08-0.42,0.24-0.58
				c0.16-0.15,0.36-0.23,0.6-0.23c0.24,0,0.44,0.08,0.6,0.22c0.16,0.15,0.24,0.34,0.24,0.56c0,0.23-0.08,0.43-0.23,0.58
				C210.39,30.67,210.19,30.75,209.94,30.75z M209.32,38.87v-6.81h1.23v6.81H209.32z"/>
			<path class="st2" d="M215.87,38.95c-0.69,0-1.31-0.15-1.86-0.45c-0.54-0.3-0.97-0.71-1.28-1.23s-0.46-1.12-0.46-1.8
				s0.15-1.28,0.46-1.8s0.73-0.93,1.28-1.23c0.54-0.3,1.16-0.44,1.86-0.44c0.62,0,1.17,0.12,1.65,0.37
				c0.48,0.24,0.86,0.61,1.12,1.09l-0.94,0.6c-0.22-0.33-0.49-0.58-0.82-0.74c-0.32-0.16-0.67-0.24-1.03-0.24
				c-0.45,0-0.84,0.1-1.19,0.3c-0.35,0.2-0.63,0.47-0.83,0.83c-0.21,0.35-0.31,0.78-0.31,1.27c0,0.49,0.1,0.91,0.31,1.27
				s0.48,0.64,0.83,0.83c0.35,0.2,0.75,0.3,1.19,0.3c0.37,0,0.71-0.08,1.03-0.24c0.32-0.16,0.59-0.4,0.82-0.74l0.94,0.59
				c-0.27,0.47-0.64,0.83-1.12,1.09C217.04,38.82,216.49,38.95,215.87,38.95z"/>
			<path class="st2" d="M222.23,38.95c-0.51,0-0.95-0.09-1.33-0.26s-0.67-0.41-0.88-0.71c-0.21-0.3-0.31-0.65-0.31-1.03
				c0-0.37,0.09-0.7,0.26-1s0.46-0.54,0.86-0.72c0.4-0.18,0.94-0.27,1.61-0.27h2.16v0.89h-2.11c-0.62,0-1.03,0.1-1.25,0.31
				s-0.32,0.45-0.32,0.75c0,0.33,0.13,0.6,0.4,0.8s0.63,0.3,1.1,0.3c0.46,0,0.87-0.1,1.21-0.31s0.6-0.51,0.75-0.9l0.24,0.85
				c-0.16,0.4-0.45,0.72-0.86,0.96C223.37,38.83,222.85,38.95,222.23,38.95z M224.46,38.87v-1.44l-0.06-0.27v-2.45
				c0-0.52-0.15-0.93-0.46-1.21c-0.3-0.29-0.76-0.43-1.37-0.43c-0.4,0-0.8,0.07-1.18,0.2c-0.39,0.13-0.71,0.31-0.98,0.53l-0.51-0.92
				c0.35-0.28,0.77-0.5,1.27-0.65c0.49-0.15,1.01-0.22,1.55-0.22c0.93,0,1.65,0.23,2.16,0.68c0.51,0.45,0.76,1.15,0.76,2.08v4.11
				H224.46z"/>
			<path class="st2" d="M227.92,38.87v-6.81h1.18v1.85l-0.12-0.46c0.19-0.47,0.5-0.83,0.95-1.08s0.99-0.37,1.64-0.37v1.19
				c-0.05-0.01-0.1-0.01-0.15-0.01s-0.09,0-0.13,0c-0.66,0-1.18,0.2-1.57,0.59c-0.39,0.39-0.58,0.96-0.58,1.71v3.39H227.92z"/>
			<path class="st2" d="M236.64,38.87v-6.81h1.18v1.84l-0.19-0.49c0.22-0.45,0.57-0.79,1.03-1.04c0.46-0.25,1-0.37,1.62-0.37
				c0.56,0,1.05,0.11,1.47,0.32c0.42,0.21,0.76,0.54,1,0.98c0.24,0.44,0.36,0.99,0.36,1.66v3.92h-1.23V35.1
				c0-0.66-0.16-1.16-0.48-1.49s-0.77-0.5-1.36-0.5c-0.44,0-0.82,0.09-1.14,0.26c-0.33,0.17-0.58,0.42-0.75,0.76
				c-0.18,0.33-0.26,0.75-0.26,1.25v3.51H236.64z"/>
			<path class="st2" d="M247.38,38.95c-0.51,0-0.95-0.09-1.33-0.26s-0.67-0.41-0.88-0.71c-0.21-0.3-0.31-0.65-0.31-1.03
				c0-0.37,0.09-0.7,0.26-1s0.46-0.54,0.86-0.72c0.4-0.18,0.94-0.27,1.61-0.27h2.16v0.89h-2.11c-0.62,0-1.03,0.1-1.25,0.31
				s-0.32,0.45-0.32,0.75c0,0.33,0.13,0.6,0.4,0.8s0.63,0.3,1.1,0.3c0.46,0,0.87-0.1,1.21-0.31s0.6-0.51,0.75-0.9l0.24,0.85
				c-0.16,0.4-0.45,0.72-0.86,0.96C248.52,38.83,248.01,38.95,247.38,38.95z M249.61,38.87v-1.44l-0.06-0.27v-2.45
				c0-0.52-0.15-0.93-0.46-1.21c-0.3-0.29-0.76-0.43-1.37-0.43c-0.4,0-0.8,0.07-1.18,0.2c-0.39,0.13-0.71,0.31-0.98,0.53l-0.51-0.92
				c0.35-0.28,0.77-0.5,1.27-0.65c0.49-0.15,1.01-0.22,1.55-0.22c0.93,0,1.65,0.23,2.16,0.68c0.51,0.45,0.76,1.15,0.76,2.08v4.11
				H249.61z"/>
			<path class="st2" d="M259.56,38.95c-0.73,0-1.37-0.15-1.92-0.45c-0.55-0.3-0.98-0.71-1.29-1.23c-0.3-0.52-0.46-1.12-0.46-1.8
				s0.15-1.28,0.44-1.8c0.3-0.52,0.7-0.93,1.22-1.23c0.52-0.3,1.1-0.44,1.75-0.44c0.66,0,1.24,0.15,1.75,0.44
				c0.5,0.29,0.9,0.7,1.19,1.23c0.29,0.53,0.43,1.14,0.43,1.84c0,0.05,0,0.11-0.01,0.18c0,0.07-0.01,0.13-0.02,0.19h-5.79v-0.89
				h5.15l-0.5,0.31c0.01-0.44-0.08-0.83-0.27-1.17s-0.45-0.61-0.78-0.8c-0.33-0.19-0.71-0.29-1.15-0.29c-0.43,0-0.81,0.1-1.14,0.29
				c-0.33,0.19-0.6,0.46-0.78,0.81s-0.28,0.74-0.28,1.19v0.21c0,0.45,0.1,0.86,0.31,1.21c0.21,0.36,0.5,0.63,0.88,0.83
				c0.38,0.2,0.81,0.3,1.3,0.3c0.4,0,0.77-0.07,1.1-0.21c0.33-0.14,0.62-0.34,0.87-0.62l0.68,0.8c-0.31,0.36-0.69,0.63-1.15,0.82
				C260.63,38.85,260.12,38.95,259.56,38.95z"/>
			<path class="st2" d="M266.34,38.95c-0.56,0-1.1-0.08-1.61-0.23c-0.51-0.15-0.91-0.34-1.2-0.56l0.51-0.98
				c0.29,0.2,0.65,0.36,1.08,0.5c0.43,0.14,0.86,0.21,1.31,0.21c0.57,0,0.99-0.08,1.24-0.24c0.25-0.16,0.38-0.39,0.38-0.68
				c0-0.21-0.08-0.38-0.23-0.5c-0.15-0.12-0.36-0.21-0.61-0.27s-0.53-0.11-0.84-0.16c-0.31-0.05-0.62-0.11-0.92-0.18
				c-0.31-0.07-0.59-0.18-0.85-0.31c-0.26-0.13-0.46-0.32-0.62-0.55c-0.15-0.24-0.23-0.55-0.23-0.94c0-0.41,0.12-0.77,0.35-1.08
				c0.23-0.31,0.56-0.55,0.98-0.71S266,32,266.58,32c0.45,0,0.9,0.05,1.36,0.16s0.83,0.26,1.12,0.46l-0.53,0.98
				c-0.31-0.21-0.63-0.35-0.96-0.42s-0.67-0.12-1-0.12c-0.54,0-0.94,0.09-1.21,0.26c-0.27,0.18-0.4,0.4-0.4,0.67
				c0,0.23,0.08,0.41,0.24,0.53c0.16,0.12,0.36,0.22,0.62,0.29c0.25,0.07,0.53,0.13,0.84,0.17c0.31,0.05,0.62,0.11,0.92,0.18
				s0.59,0.17,0.84,0.3c0.25,0.13,0.46,0.31,0.62,0.54c0.16,0.23,0.24,0.54,0.24,0.92c0,0.41-0.12,0.77-0.36,1.07
				c-0.24,0.3-0.58,0.53-1.01,0.7S266.95,38.95,266.34,38.95z"/>
			<path class="st2" d="M273.79,38.95c-0.69,0-1.31-0.15-1.86-0.45c-0.54-0.3-0.97-0.71-1.28-1.23s-0.46-1.12-0.46-1.8
				s0.15-1.28,0.46-1.8s0.73-0.93,1.28-1.23c0.54-0.3,1.16-0.44,1.86-0.44c0.62,0,1.17,0.12,1.65,0.37
				c0.48,0.24,0.86,0.61,1.12,1.09l-0.94,0.6c-0.22-0.33-0.49-0.58-0.82-0.74c-0.32-0.16-0.67-0.24-1.03-0.24
				c-0.45,0-0.84,0.1-1.19,0.3c-0.35,0.2-0.63,0.47-0.83,0.83c-0.21,0.35-0.31,0.78-0.31,1.27c0,0.49,0.1,0.91,0.31,1.27
				s0.48,0.64,0.83,0.83c0.35,0.2,0.75,0.3,1.19,0.3c0.37,0,0.71-0.08,1.03-0.24c0.32-0.16,0.59-0.4,0.82-0.74l0.94,0.59
				c-0.27,0.47-0.64,0.83-1.12,1.09C274.96,38.82,274.41,38.95,273.79,38.95z"/>
			<path class="st2" d="M280.15,38.95c-0.51,0-0.95-0.09-1.33-0.26s-0.67-0.41-0.88-0.71c-0.21-0.3-0.31-0.65-0.31-1.03
				c0-0.37,0.09-0.7,0.26-1s0.46-0.54,0.86-0.72c0.4-0.18,0.94-0.27,1.61-0.27h2.16v0.89h-2.11c-0.62,0-1.03,0.1-1.25,0.31
				s-0.32,0.45-0.32,0.75c0,0.33,0.13,0.6,0.4,0.8s0.63,0.3,1.1,0.3c0.46,0,0.87-0.1,1.21-0.31s0.6-0.51,0.75-0.9l0.24,0.85
				c-0.16,0.4-0.45,0.72-0.86,0.96C281.29,38.83,280.77,38.95,280.15,38.95z M282.38,38.87v-1.44l-0.06-0.27v-2.45
				c0-0.52-0.15-0.93-0.46-1.21c-0.3-0.29-0.76-0.43-1.37-0.43c-0.4,0-0.8,0.07-1.18,0.2c-0.39,0.13-0.71,0.31-0.98,0.53l-0.51-0.92
				c0.35-0.28,0.77-0.5,1.27-0.65c0.49-0.15,1.01-0.22,1.55-0.22c0.93,0,1.65,0.23,2.16,0.68c0.51,0.45,0.76,1.15,0.76,2.08v4.11
				H282.38z"/>
			<path class="st2" d="M285.84,38.87v-9.53h1.23v9.53H285.84z"/>
			<path class="st2" d="M291.41,38.95c-0.51,0-0.95-0.09-1.33-0.26s-0.67-0.41-0.88-0.71c-0.21-0.3-0.31-0.65-0.31-1.03
				c0-0.37,0.09-0.7,0.26-1s0.46-0.54,0.86-0.72c0.4-0.18,0.94-0.27,1.61-0.27h2.16v0.89h-2.11c-0.62,0-1.03,0.1-1.25,0.31
				c-0.21,0.21-0.32,0.45-0.32,0.75c0,0.33,0.13,0.6,0.4,0.8s0.63,0.3,1.1,0.3c0.46,0,0.87-0.1,1.21-0.31
				c0.35-0.21,0.6-0.51,0.75-0.9l0.24,0.85c-0.16,0.4-0.45,0.72-0.86,0.96C292.55,38.83,292.04,38.95,291.41,38.95z M293.65,38.87
				v-1.44l-0.06-0.27v-2.45c0-0.52-0.15-0.93-0.46-1.21c-0.3-0.29-0.76-0.43-1.37-0.43c-0.4,0-0.8,0.07-1.18,0.2
				c-0.39,0.13-0.71,0.31-0.98,0.53l-0.51-0.92c0.35-0.28,0.77-0.5,1.27-0.65c0.49-0.15,1.01-0.22,1.55-0.22
				c0.93,0,1.65,0.23,2.16,0.68c0.51,0.45,0.76,1.15,0.76,2.08v4.11H293.65z"/>
			<path class="st2" d="M303.37,38.95c-0.66,0-1.25-0.15-1.77-0.44c-0.52-0.29-0.93-0.7-1.23-1.22c-0.3-0.52-0.45-1.13-0.45-1.82
				c0-0.69,0.15-1.3,0.45-1.82c0.3-0.52,0.71-0.92,1.23-1.21c0.52-0.29,1.11-0.44,1.77-0.44c0.57,0,1.09,0.13,1.55,0.39
				s0.83,0.64,1.11,1.16c0.28,0.51,0.42,1.16,0.42,1.93c0,0.77-0.13,1.41-0.4,1.93c-0.27,0.51-0.63,0.9-1.1,1.16
				C304.49,38.82,303.96,38.95,303.37,38.95z M303.47,37.87c0.43,0,0.81-0.1,1.16-0.3c0.35-0.2,0.62-0.48,0.82-0.84
				c0.2-0.36,0.3-0.79,0.3-1.27c0-0.49-0.1-0.91-0.3-1.27c-0.2-0.36-0.48-0.63-0.82-0.83c-0.35-0.2-0.73-0.3-1.16-0.3
				c-0.44,0-0.83,0.1-1.17,0.3c-0.34,0.2-0.62,0.47-0.82,0.83c-0.21,0.35-0.31,0.78-0.31,1.27c0,0.48,0.1,0.9,0.31,1.27
				c0.21,0.36,0.48,0.64,0.82,0.84C302.65,37.77,303.04,37.87,303.47,37.87z M305.8,38.87v-1.84l0.08-1.58l-0.13-1.58v-4.53h1.23
				v9.53H305.8z"/>
			<path class="st2" d="M312.35,38.95c-0.73,0-1.37-0.15-1.92-0.45c-0.55-0.3-0.98-0.71-1.29-1.23s-0.46-1.12-0.46-1.8
				s0.15-1.28,0.44-1.8c0.3-0.52,0.7-0.93,1.22-1.23c0.52-0.3,1.1-0.44,1.75-0.44c0.66,0,1.24,0.15,1.75,0.44
				c0.51,0.29,0.9,0.7,1.19,1.23c0.29,0.53,0.43,1.14,0.43,1.84c0,0.05,0,0.11-0.01,0.18c-0.01,0.07-0.01,0.13-0.02,0.19h-5.79
				v-0.89h5.15l-0.5,0.31c0.01-0.44-0.08-0.83-0.27-1.17c-0.19-0.34-0.45-0.61-0.78-0.8c-0.33-0.19-0.71-0.29-1.15-0.29
				c-0.43,0-0.81,0.1-1.14,0.29c-0.33,0.19-0.6,0.46-0.79,0.81c-0.19,0.35-0.28,0.74-0.28,1.19v0.21c0,0.45,0.1,0.86,0.31,1.21
				c0.21,0.36,0.5,0.63,0.88,0.83c0.38,0.2,0.81,0.3,1.3,0.3c0.4,0,0.77-0.07,1.1-0.21c0.33-0.14,0.62-0.34,0.87-0.62l0.68,0.8
				c-0.31,0.36-0.69,0.63-1.15,0.82C313.43,38.85,312.91,38.95,312.35,38.95z"/>
			<path class="st2" d="M322.59,38.95c-0.56,0-1.1-0.08-1.61-0.23c-0.51-0.15-0.91-0.34-1.2-0.56l0.51-0.98
				c0.29,0.2,0.65,0.36,1.08,0.5c0.43,0.14,0.86,0.21,1.31,0.21c0.57,0,0.99-0.08,1.24-0.24s0.38-0.39,0.38-0.68
				c0-0.21-0.08-0.38-0.23-0.5c-0.15-0.12-0.36-0.21-0.61-0.27c-0.25-0.06-0.53-0.11-0.84-0.16c-0.31-0.05-0.62-0.11-0.93-0.18
				s-0.59-0.18-0.85-0.31c-0.26-0.13-0.46-0.32-0.62-0.55c-0.15-0.24-0.23-0.55-0.23-0.94c0-0.41,0.12-0.77,0.35-1.08
				c0.23-0.31,0.56-0.55,0.98-0.71s0.93-0.25,1.51-0.25c0.45,0,0.9,0.05,1.36,0.16c0.46,0.11,0.83,0.26,1.12,0.46l-0.53,0.98
				c-0.31-0.21-0.63-0.35-0.96-0.42s-0.67-0.12-1-0.12c-0.54,0-0.94,0.09-1.21,0.26c-0.27,0.18-0.4,0.4-0.4,0.67
				c0,0.23,0.08,0.41,0.24,0.53c0.16,0.12,0.37,0.22,0.62,0.29c0.25,0.07,0.53,0.13,0.84,0.17c0.31,0.05,0.62,0.11,0.92,0.18
				s0.59,0.17,0.84,0.3s0.46,0.31,0.62,0.54c0.16,0.23,0.24,0.54,0.24,0.92c0,0.41-0.12,0.77-0.36,1.07s-0.58,0.53-1.01,0.7
				C323.72,38.87,323.2,38.95,322.59,38.95z"/>
			<path class="st2" d="M327.69,30.75c-0.24,0-0.44-0.08-0.6-0.23c-0.16-0.15-0.24-0.34-0.24-0.57c0-0.23,0.08-0.42,0.24-0.58
				c0.16-0.15,0.36-0.23,0.6-0.23c0.24,0,0.44,0.08,0.6,0.22c0.16,0.15,0.24,0.34,0.24,0.56c0,0.23-0.08,0.43-0.23,0.58
				C328.14,30.67,327.94,30.75,327.69,30.75z M327.07,38.87v-6.81h1.23v6.81H327.07z"/>
			<path class="st2" d="M329.68,33.08v-1.02h4.34v1.02H329.68z M332.99,38.95c-0.69,0-1.21-0.18-1.59-0.55s-0.57-0.9-0.57-1.58
				v-6.24h1.23v6.19c0,0.37,0.09,0.65,0.28,0.85c0.18,0.2,0.45,0.3,0.79,0.3c0.38,0,0.71-0.11,0.96-0.32l0.38,0.89
				c-0.19,0.16-0.41,0.28-0.67,0.36C333.54,38.91,333.27,38.95,332.99,38.95z"/>
			<path class="st2" d="M339,38.95c-0.73,0-1.37-0.15-1.92-0.45s-0.98-0.71-1.29-1.23c-0.3-0.52-0.46-1.12-0.46-1.8
				s0.15-1.28,0.44-1.8s0.7-0.93,1.22-1.23c0.52-0.3,1.1-0.44,1.75-0.44c0.66,0,1.24,0.15,1.75,0.44c0.5,0.29,0.9,0.7,1.19,1.23
				c0.29,0.53,0.43,1.14,0.43,1.84c0,0.05,0,0.11-0.01,0.18c0,0.07-0.01,0.13-0.02,0.19h-5.79v-0.89h5.15l-0.5,0.31
				c0.01-0.44-0.08-0.83-0.27-1.17c-0.19-0.34-0.45-0.61-0.78-0.8c-0.33-0.19-0.71-0.29-1.15-0.29c-0.43,0-0.81,0.1-1.14,0.29
				c-0.33,0.19-0.6,0.46-0.78,0.81c-0.19,0.35-0.28,0.74-0.28,1.19v0.21c0,0.45,0.11,0.86,0.31,1.21c0.21,0.36,0.5,0.63,0.88,0.83
				c0.38,0.2,0.81,0.3,1.3,0.3c0.4,0,0.77-0.07,1.1-0.21c0.33-0.14,0.62-0.34,0.87-0.62l0.68,0.8c-0.31,0.36-0.69,0.63-1.15,0.82
				C340.08,38.85,339.57,38.95,339,38.95z"/>
			<path class="st2" d="M350.1,38.95c-0.66,0-1.25-0.15-1.77-0.44c-0.52-0.29-0.93-0.7-1.23-1.22c-0.3-0.52-0.45-1.13-0.45-1.82
				c0-0.69,0.15-1.3,0.45-1.82c0.3-0.52,0.71-0.92,1.23-1.21c0.52-0.29,1.11-0.44,1.77-0.44c0.57,0,1.09,0.13,1.55,0.39
				c0.46,0.26,0.83,0.64,1.11,1.16c0.28,0.51,0.42,1.16,0.42,1.93c0,0.77-0.13,1.41-0.4,1.93c-0.27,0.51-0.64,0.9-1.1,1.16
				C351.22,38.82,350.69,38.95,350.1,38.95z M350.2,37.87c0.43,0,0.82-0.1,1.16-0.3c0.35-0.2,0.62-0.48,0.82-0.84
				c0.2-0.36,0.3-0.79,0.3-1.27c0-0.49-0.1-0.91-0.3-1.27c-0.2-0.36-0.47-0.63-0.82-0.83c-0.35-0.2-0.73-0.3-1.16-0.3
				c-0.44,0-0.83,0.1-1.17,0.3c-0.34,0.2-0.62,0.47-0.82,0.83c-0.21,0.35-0.31,0.78-0.31,1.27c0,0.48,0.1,0.9,0.31,1.27
				c0.21,0.36,0.48,0.64,0.82,0.84C349.38,37.77,349.77,37.87,350.2,37.87z M352.53,38.87v-1.84l0.08-1.58l-0.13-1.58v-4.53h1.23
				v9.53H352.53z"/>
			<path class="st2" d="M359.08,38.95c-0.73,0-1.37-0.15-1.92-0.45s-0.98-0.71-1.29-1.23c-0.3-0.52-0.46-1.12-0.46-1.8
				s0.15-1.28,0.44-1.8s0.7-0.93,1.22-1.23c0.52-0.3,1.1-0.44,1.75-0.44c0.66,0,1.24,0.15,1.75,0.44c0.5,0.29,0.9,0.7,1.19,1.23
				c0.29,0.53,0.43,1.14,0.43,1.84c0,0.05,0,0.11-0.01,0.18c0,0.07-0.01,0.13-0.02,0.19h-5.79v-0.89h5.15l-0.5,0.31
				c0.01-0.44-0.08-0.83-0.27-1.17c-0.19-0.34-0.45-0.61-0.78-0.8c-0.33-0.19-0.71-0.29-1.15-0.29c-0.43,0-0.81,0.1-1.14,0.29
				c-0.33,0.19-0.6,0.46-0.78,0.81c-0.19,0.35-0.28,0.74-0.28,1.19v0.21c0,0.45,0.11,0.86,0.31,1.21c0.21,0.36,0.5,0.63,0.88,0.83
				c0.38,0.2,0.81,0.3,1.3,0.3c0.4,0,0.77-0.07,1.1-0.21c0.33-0.14,0.62-0.34,0.87-0.62l0.68,0.8c-0.31,0.36-0.69,0.63-1.15,0.82
				C360.16,38.85,359.64,38.95,359.08,38.95z"/>
			<path class="st2" d="M369.32,38.95c-0.56,0-1.1-0.08-1.61-0.23c-0.51-0.15-0.91-0.34-1.2-0.56l0.51-0.98
				c0.29,0.2,0.65,0.36,1.08,0.5c0.43,0.14,0.87,0.21,1.31,0.21c0.57,0,0.99-0.08,1.24-0.24c0.25-0.16,0.38-0.39,0.38-0.68
				c0-0.21-0.08-0.38-0.23-0.5c-0.15-0.12-0.36-0.21-0.61-0.27c-0.25-0.06-0.53-0.11-0.84-0.16c-0.31-0.05-0.62-0.11-0.92-0.18
				c-0.31-0.07-0.59-0.18-0.85-0.31c-0.26-0.13-0.46-0.32-0.62-0.55c-0.15-0.24-0.23-0.55-0.23-0.94c0-0.41,0.12-0.77,0.35-1.08
				s0.56-0.55,0.98-0.71s0.93-0.25,1.51-0.25c0.45,0,0.9,0.05,1.36,0.16c0.46,0.11,0.83,0.26,1.12,0.46l-0.53,0.98
				c-0.31-0.21-0.63-0.35-0.96-0.42s-0.67-0.12-1-0.12c-0.54,0-0.94,0.09-1.21,0.26c-0.27,0.18-0.4,0.4-0.4,0.67
				c0,0.23,0.08,0.41,0.24,0.53c0.16,0.12,0.36,0.22,0.62,0.29c0.25,0.07,0.53,0.13,0.84,0.17c0.31,0.05,0.62,0.11,0.93,0.18
				s0.59,0.17,0.84,0.3c0.25,0.13,0.46,0.31,0.62,0.54c0.16,0.23,0.24,0.54,0.24,0.92c0,0.41-0.12,0.77-0.36,1.07
				c-0.24,0.3-0.58,0.53-1.02,0.7C370.45,38.87,369.92,38.95,369.32,38.95z"/>
			<path class="st2" d="M376.83,38.95c-0.73,0-1.37-0.15-1.92-0.45s-0.98-0.71-1.29-1.23c-0.3-0.52-0.46-1.12-0.46-1.8
				s0.15-1.28,0.44-1.8s0.7-0.93,1.22-1.23c0.52-0.3,1.1-0.44,1.75-0.44c0.66,0,1.24,0.15,1.75,0.44c0.5,0.29,0.9,0.7,1.19,1.23
				c0.29,0.53,0.43,1.14,0.43,1.84c0,0.05,0,0.11-0.01,0.18c0,0.07-0.01,0.13-0.02,0.19h-5.79v-0.89h5.15l-0.5,0.31
				c0.01-0.44-0.08-0.83-0.27-1.17c-0.19-0.34-0.45-0.61-0.78-0.8c-0.33-0.19-0.71-0.29-1.15-0.29c-0.43,0-0.81,0.1-1.14,0.29
				c-0.33,0.19-0.6,0.46-0.78,0.81c-0.19,0.35-0.28,0.74-0.28,1.19v0.21c0,0.45,0.11,0.86,0.31,1.21c0.21,0.36,0.5,0.63,0.88,0.83
				c0.38,0.2,0.81,0.3,1.3,0.3c0.4,0,0.77-0.07,1.1-0.21c0.33-0.14,0.62-0.34,0.87-0.62l0.68,0.8c-0.31,0.36-0.69,0.63-1.15,0.82
				C377.91,38.85,377.4,38.95,376.83,38.95z"/>
			<path class="st2" d="M384.53,38.95c-0.58,0-1.09-0.11-1.54-0.32c-0.44-0.21-0.78-0.54-1.03-0.98s-0.37-1-0.37-1.66v-3.92h1.23
				v3.78c0,0.67,0.16,1.17,0.48,1.5c0.32,0.33,0.77,0.5,1.36,0.5c0.43,0,0.8-0.09,1.12-0.26c0.32-0.18,0.56-0.43,0.73-0.77
				s0.26-0.75,0.26-1.23v-3.52h1.23v6.81h-1.17v-1.84l0.19,0.49c-0.22,0.45-0.56,0.8-1,1.05S385.08,38.95,384.53,38.95z"/>
			<path class="st2" d="M394.43,30.75c-0.24,0-0.44-0.08-0.6-0.23c-0.16-0.15-0.24-0.34-0.24-0.57c0-0.23,0.08-0.42,0.24-0.58
				c0.16-0.15,0.36-0.23,0.6-0.23c0.24,0,0.44,0.08,0.6,0.22c0.16,0.15,0.24,0.34,0.24,0.56c0,0.23-0.08,0.43-0.23,0.58
				C394.88,30.67,394.68,30.75,394.43,30.75z M393.81,38.87v-6.81h1.23v6.81H393.81z"/>
			<path class="st2" d="M397.39,38.87v-6.81h1.18v1.84l-0.19-0.49c0.22-0.45,0.56-0.79,1.03-1.04s1-0.37,1.62-0.37
				c0.56,0,1.05,0.11,1.47,0.32c0.42,0.21,0.76,0.54,1,0.98c0.24,0.44,0.36,0.99,0.36,1.66v3.92h-1.23V35.1
				c0-0.66-0.16-1.16-0.48-1.49c-0.32-0.33-0.77-0.5-1.36-0.5c-0.44,0-0.82,0.09-1.14,0.26c-0.33,0.17-0.58,0.42-0.75,0.76
				c-0.18,0.33-0.26,0.75-0.26,1.25v3.51H397.39z"/>
			<path class="st2" d="M405.17,33.08v-1.02h4.34v1.02H405.17z M408.48,38.95c-0.69,0-1.21-0.18-1.59-0.55s-0.57-0.9-0.57-1.58
				v-6.24h1.23v6.19c0,0.37,0.09,0.65,0.28,0.85c0.18,0.2,0.45,0.3,0.79,0.3c0.38,0,0.71-0.11,0.96-0.32l0.38,0.89
				c-0.19,0.16-0.41,0.28-0.67,0.36C409.04,38.91,408.76,38.95,408.48,38.95z"/>
			<path class="st2" d="M414.49,38.95c-0.73,0-1.37-0.15-1.92-0.45c-0.55-0.3-0.98-0.71-1.29-1.23s-0.46-1.12-0.46-1.8
				s0.15-1.28,0.44-1.8c0.3-0.52,0.7-0.93,1.22-1.23c0.52-0.3,1.1-0.44,1.75-0.44c0.66,0,1.24,0.15,1.75,0.44
				c0.51,0.29,0.9,0.7,1.19,1.23c0.29,0.53,0.43,1.14,0.43,1.84c0,0.05,0,0.11-0.01,0.18c-0.01,0.07-0.01,0.13-0.02,0.19h-5.79
				v-0.89h5.15l-0.5,0.31c0.01-0.44-0.08-0.83-0.27-1.17c-0.19-0.34-0.45-0.61-0.78-0.8c-0.33-0.19-0.71-0.29-1.15-0.29
				c-0.43,0-0.81,0.1-1.14,0.29c-0.33,0.19-0.6,0.46-0.79,0.81c-0.19,0.35-0.28,0.74-0.28,1.19v0.21c0,0.45,0.1,0.86,0.31,1.21
				c0.21,0.36,0.5,0.63,0.88,0.83c0.38,0.2,0.81,0.3,1.3,0.3c0.4,0,0.77-0.07,1.1-0.21c0.33-0.14,0.62-0.34,0.87-0.62l0.68,0.8
				c-0.31,0.36-0.69,0.63-1.15,0.82C415.57,38.85,415.06,38.95,414.49,38.95z"/>
			<path class="st2" d="M419.32,38.87v-6.81h1.18v1.85l-0.12-0.46c0.19-0.47,0.5-0.83,0.95-1.08s0.99-0.37,1.64-0.37v1.19
				c-0.05-0.01-0.1-0.01-0.15-0.01s-0.09,0-0.13,0c-0.66,0-1.18,0.2-1.57,0.59c-0.38,0.39-0.58,0.96-0.58,1.71v3.39H419.32z"/>
			<path class="st2" d="M427.62,38.95c-0.73,0-1.37-0.15-1.92-0.45s-0.98-0.71-1.29-1.23c-0.3-0.52-0.46-1.12-0.46-1.8
				s0.15-1.28,0.44-1.8s0.7-0.93,1.22-1.23c0.52-0.3,1.1-0.44,1.75-0.44c0.66,0,1.24,0.15,1.75,0.44c0.5,0.29,0.9,0.7,1.19,1.23
				c0.29,0.53,0.43,1.14,0.43,1.84c0,0.05,0,0.11-0.01,0.18c0,0.07-0.01,0.13-0.02,0.19h-5.79v-0.89h5.15l-0.5,0.31
				c0.01-0.44-0.08-0.83-0.27-1.17c-0.19-0.34-0.45-0.61-0.78-0.8c-0.33-0.19-0.71-0.29-1.15-0.29c-0.43,0-0.81,0.1-1.14,0.29
				c-0.33,0.19-0.6,0.46-0.78,0.81c-0.19,0.35-0.28,0.74-0.28,1.19v0.21c0,0.45,0.11,0.86,0.31,1.21c0.21,0.36,0.5,0.63,0.88,0.83
				c0.38,0.2,0.81,0.3,1.3,0.3c0.4,0,0.77-0.07,1.1-0.21c0.33-0.14,0.62-0.34,0.87-0.62l0.68,0.8c-0.31,0.36-0.69,0.63-1.15,0.82
				C428.7,38.85,428.19,38.95,427.62,38.95z"/>
			<path class="st2" d="M434.4,38.95c-0.56,0-1.1-0.08-1.61-0.23c-0.51-0.15-0.91-0.34-1.2-0.56l0.51-0.98
				c0.29,0.2,0.65,0.36,1.08,0.5c0.43,0.14,0.87,0.21,1.31,0.21c0.57,0,0.99-0.08,1.24-0.24c0.25-0.16,0.38-0.39,0.38-0.68
				c0-0.21-0.08-0.38-0.23-0.5c-0.15-0.12-0.36-0.21-0.61-0.27c-0.25-0.06-0.53-0.11-0.84-0.16c-0.31-0.05-0.62-0.11-0.92-0.18
				c-0.31-0.07-0.59-0.18-0.85-0.31c-0.26-0.13-0.46-0.32-0.62-0.55c-0.15-0.24-0.23-0.55-0.23-0.94c0-0.41,0.12-0.77,0.35-1.08
				s0.56-0.55,0.98-0.71s0.93-0.25,1.51-0.25c0.45,0,0.9,0.05,1.36,0.16c0.46,0.11,0.83,0.26,1.12,0.46l-0.53,0.98
				c-0.31-0.21-0.63-0.35-0.96-0.42s-0.67-0.12-1-0.12c-0.54,0-0.94,0.09-1.21,0.26c-0.27,0.18-0.4,0.4-0.4,0.67
				c0,0.23,0.08,0.41,0.24,0.53c0.16,0.12,0.36,0.22,0.62,0.29c0.25,0.07,0.53,0.13,0.84,0.17c0.31,0.05,0.62,0.11,0.93,0.18
				s0.59,0.17,0.84,0.3c0.25,0.13,0.46,0.31,0.62,0.54c0.16,0.23,0.24,0.54,0.24,0.92c0,0.41-0.12,0.77-0.36,1.07
				c-0.24,0.3-0.58,0.53-1.02,0.7C435.53,38.87,435.01,38.95,434.4,38.95z"/>
			<path class="st2" d="M440.84,38.95c-0.56,0-1.1-0.08-1.61-0.23c-0.51-0.15-0.91-0.34-1.2-0.56l0.51-0.98
				c0.29,0.2,0.65,0.36,1.08,0.5c0.43,0.14,0.86,0.21,1.31,0.21c0.57,0,0.99-0.08,1.24-0.24s0.38-0.39,0.38-0.68
				c0-0.21-0.08-0.38-0.23-0.5c-0.15-0.12-0.36-0.21-0.61-0.27c-0.25-0.06-0.53-0.11-0.84-0.16c-0.31-0.05-0.62-0.11-0.93-0.18
				s-0.59-0.18-0.85-0.31c-0.26-0.13-0.46-0.32-0.62-0.55c-0.15-0.24-0.23-0.55-0.23-0.94c0-0.41,0.12-0.77,0.35-1.08
				c0.23-0.31,0.56-0.55,0.98-0.71S440.5,32,441.08,32c0.45,0,0.9,0.05,1.36,0.16c0.46,0.11,0.83,0.26,1.12,0.46l-0.53,0.98
				c-0.31-0.21-0.63-0.35-0.96-0.42s-0.67-0.12-1-0.12c-0.54,0-0.94,0.09-1.21,0.26c-0.27,0.18-0.4,0.4-0.4,0.67
				c0,0.23,0.08,0.41,0.24,0.53c0.16,0.12,0.37,0.22,0.62,0.29c0.25,0.07,0.53,0.13,0.84,0.17c0.31,0.05,0.62,0.11,0.92,0.18
				s0.59,0.17,0.84,0.3s0.46,0.31,0.62,0.54c0.16,0.23,0.24,0.54,0.24,0.92c0,0.41-0.12,0.77-0.36,1.07s-0.58,0.53-1.01,0.7
				C441.97,38.87,441.45,38.95,440.84,38.95z"/>
			<path class="st2" d="M448.35,38.95c-0.73,0-1.37-0.15-1.92-0.45c-0.55-0.3-0.98-0.71-1.29-1.23s-0.46-1.12-0.46-1.8
				s0.15-1.28,0.44-1.8c0.3-0.52,0.7-0.93,1.22-1.23c0.52-0.3,1.1-0.44,1.75-0.44c0.66,0,1.24,0.15,1.75,0.44
				c0.51,0.29,0.9,0.7,1.19,1.23c0.29,0.53,0.43,1.14,0.43,1.84c0,0.05,0,0.11-0.01,0.18c-0.01,0.07-0.01,0.13-0.02,0.19h-5.79
				v-0.89h5.15l-0.5,0.31c0.01-0.44-0.08-0.83-0.27-1.17c-0.19-0.34-0.45-0.61-0.78-0.8c-0.33-0.19-0.71-0.29-1.15-0.29
				c-0.43,0-0.81,0.1-1.14,0.29c-0.33,0.19-0.6,0.46-0.79,0.81c-0.19,0.35-0.28,0.74-0.28,1.19v0.21c0,0.45,0.1,0.86,0.31,1.21
				c0.21,0.36,0.5,0.63,0.88,0.83c0.38,0.2,0.81,0.3,1.3,0.3c0.4,0,0.77-0.07,1.1-0.21c0.33-0.14,0.62-0.34,0.87-0.62l0.68,0.8
				c-0.31,0.36-0.69,0.63-1.15,0.82C449.43,38.85,448.92,38.95,448.35,38.95z"/>
			<path class="st2" d="M456.64,41.36v-9.3h1.18v1.84l-0.08,1.58l0.13,1.58v4.3H456.64z M460.25,38.95c-0.57,0-1.08-0.13-1.55-0.39
				c-0.47-0.26-0.84-0.65-1.12-1.16c-0.28-0.51-0.42-1.16-0.42-1.93c0-0.77,0.13-1.41,0.41-1.93c0.27-0.51,0.64-0.9,1.1-1.16
				s0.99-0.39,1.57-0.39c0.67,0,1.26,0.15,1.77,0.44c0.51,0.29,0.92,0.7,1.22,1.21c0.3,0.52,0.45,1.12,0.45,1.82
				c0,0.69-0.15,1.3-0.45,1.82c-0.3,0.52-0.71,0.93-1.22,1.22C461.5,38.8,460.91,38.95,460.25,38.95z M460.14,37.87
				c0.44,0,0.83-0.1,1.18-0.3c0.35-0.2,0.62-0.48,0.82-0.84c0.2-0.36,0.3-0.79,0.3-1.27c0-0.49-0.1-0.91-0.3-1.27
				c-0.2-0.36-0.48-0.63-0.82-0.83c-0.35-0.2-0.74-0.3-1.18-0.3c-0.43,0-0.81,0.1-1.16,0.3c-0.35,0.2-0.62,0.47-0.82,0.83
				c-0.2,0.35-0.3,0.78-0.3,1.27c0,0.48,0.1,0.9,0.3,1.27c0.2,0.36,0.47,0.64,0.82,0.84C459.33,37.77,459.71,37.87,460.14,37.87z"/>
			<path class="st2" d="M467.39,38.95c-0.51,0-0.95-0.09-1.33-0.26s-0.67-0.41-0.88-0.71c-0.21-0.3-0.31-0.65-0.31-1.03
				c0-0.37,0.09-0.7,0.26-1s0.46-0.54,0.86-0.72s0.94-0.27,1.61-0.27h2.16v0.89h-2.11c-0.62,0-1.03,0.1-1.25,0.31
				c-0.21,0.21-0.32,0.45-0.32,0.75c0,0.33,0.13,0.6,0.4,0.8s0.63,0.3,1.11,0.3c0.46,0,0.87-0.1,1.21-0.31
				c0.35-0.21,0.6-0.51,0.75-0.9l0.24,0.85c-0.16,0.4-0.45,0.72-0.86,0.96C468.53,38.83,468.01,38.95,467.39,38.95z M469.62,38.87
				v-1.44l-0.06-0.27v-2.45c0-0.52-0.15-0.93-0.46-1.21c-0.3-0.29-0.76-0.43-1.37-0.43c-0.4,0-0.8,0.07-1.18,0.2
				s-0.71,0.31-0.98,0.53l-0.51-0.92c0.35-0.28,0.77-0.5,1.27-0.65c0.49-0.15,1.01-0.22,1.55-0.22c0.93,0,1.65,0.23,2.16,0.68
				c0.51,0.45,0.76,1.15,0.76,2.08v4.11H469.62z"/>
			<path class="st2" d="M473.08,38.87v-6.81h1.18v1.85l-0.12-0.46c0.19-0.47,0.5-0.83,0.95-1.08s0.99-0.37,1.64-0.37v1.19
				c-0.05-0.01-0.1-0.01-0.15-0.01s-0.09,0-0.13,0c-0.66,0-1.18,0.2-1.57,0.59c-0.38,0.39-0.58,0.96-0.58,1.71v3.39H473.08z"/>
			<path class="st2" d="M480.34,38.95c-0.51,0-0.95-0.09-1.33-0.26s-0.67-0.41-0.88-0.71c-0.21-0.3-0.31-0.65-0.31-1.03
				c0-0.37,0.09-0.7,0.26-1s0.46-0.54,0.86-0.72s0.94-0.27,1.61-0.27h2.16v0.89h-2.11c-0.62,0-1.03,0.1-1.25,0.31
				c-0.21,0.21-0.32,0.45-0.32,0.75c0,0.33,0.13,0.6,0.4,0.8s0.63,0.3,1.11,0.3c0.46,0,0.87-0.1,1.21-0.31
				c0.35-0.21,0.6-0.51,0.75-0.9l0.24,0.85c-0.16,0.4-0.45,0.72-0.86,0.96C481.48,38.83,480.96,38.95,480.34,38.95z M482.57,38.87
				v-1.44l-0.06-0.27v-2.45c0-0.52-0.15-0.93-0.46-1.21c-0.3-0.29-0.76-0.43-1.37-0.43c-0.4,0-0.8,0.07-1.18,0.2
				s-0.71,0.31-0.98,0.53l-0.51-0.92c0.35-0.28,0.77-0.5,1.27-0.65c0.49-0.15,1.01-0.22,1.55-0.22c0.93,0,1.65,0.23,2.16,0.68
				c0.51,0.45,0.76,1.15,0.76,2.08v4.11H482.57z"/>
			<path class="st2" d="M489.48,38.87v-6.81h1.18v1.84l-0.19-0.49c0.22-0.45,0.56-0.79,1.03-1.04s1-0.37,1.62-0.37
				c0.56,0,1.05,0.11,1.47,0.32c0.42,0.21,0.76,0.54,1,0.98c0.24,0.44,0.36,0.99,0.36,1.66v3.92h-1.23V35.1
				c0-0.66-0.16-1.16-0.48-1.49c-0.32-0.33-0.77-0.5-1.36-0.5c-0.44,0-0.82,0.09-1.14,0.26c-0.33,0.17-0.58,0.42-0.75,0.76
				c-0.18,0.33-0.26,0.75-0.26,1.25v3.51H489.48z"/>
			<path class="st2" d="M500.22,38.95c-0.51,0-0.95-0.09-1.33-0.26s-0.67-0.41-0.88-0.71c-0.21-0.3-0.31-0.65-0.31-1.03
				c0-0.37,0.09-0.7,0.26-1s0.46-0.54,0.86-0.72c0.4-0.18,0.94-0.27,1.61-0.27h2.16v0.89h-2.11c-0.62,0-1.03,0.1-1.25,0.31
				c-0.21,0.21-0.32,0.45-0.32,0.75c0,0.33,0.13,0.6,0.4,0.8s0.63,0.3,1.1,0.3c0.46,0,0.87-0.1,1.21-0.31
				c0.35-0.21,0.6-0.51,0.75-0.9l0.24,0.85c-0.16,0.4-0.45,0.72-0.86,0.96C501.36,38.83,500.84,38.95,500.22,38.95z M502.45,38.87
				v-1.44l-0.06-0.27v-2.45c0-0.52-0.15-0.93-0.46-1.21c-0.3-0.29-0.76-0.43-1.37-0.43c-0.4,0-0.8,0.07-1.18,0.2
				c-0.39,0.13-0.71,0.31-0.98,0.53l-0.51-0.92c0.35-0.28,0.77-0.5,1.27-0.65c0.49-0.15,1.01-0.22,1.55-0.22
				c0.93,0,1.65,0.23,2.16,0.68c0.51,0.45,0.76,1.15,0.76,2.08v4.11H502.45z"/>
			<path class="st2" d="M507.7,38.87l-2.98-6.81H506l2.65,6.17h-0.62l2.7-6.17h1.21l-2.98,6.81H507.7z"/>
			<path class="st2" d="M516.12,38.95c-0.73,0-1.37-0.15-1.92-0.45c-0.55-0.3-0.98-0.71-1.29-1.23s-0.46-1.12-0.46-1.8
				s0.15-1.28,0.44-1.8c0.3-0.52,0.7-0.93,1.22-1.23c0.52-0.3,1.1-0.44,1.75-0.44c0.66,0,1.24,0.15,1.75,0.44
				c0.51,0.29,0.9,0.7,1.19,1.23c0.29,0.53,0.43,1.14,0.43,1.84c0,0.05,0,0.11-0.01,0.18c-0.01,0.07-0.01,0.13-0.02,0.19h-5.79
				v-0.89h5.15l-0.5,0.31c0.01-0.44-0.08-0.83-0.27-1.17c-0.19-0.34-0.45-0.61-0.78-0.8c-0.33-0.19-0.71-0.29-1.15-0.29
				c-0.43,0-0.81,0.1-1.14,0.29c-0.33,0.19-0.6,0.46-0.79,0.81c-0.19,0.35-0.28,0.74-0.28,1.19v0.21c0,0.45,0.1,0.86,0.31,1.21
				c0.21,0.36,0.5,0.63,0.88,0.83c0.38,0.2,0.81,0.3,1.3,0.3c0.4,0,0.77-0.07,1.1-0.21c0.33-0.14,0.62-0.34,0.87-0.62l0.68,0.8
				c-0.31,0.36-0.69,0.63-1.15,0.82C517.2,38.85,516.69,38.95,516.12,38.95z"/>
			<path class="st2" d="M523.78,38.59c-0.66,0-1.25-0.14-1.77-0.42c-0.52-0.28-0.93-0.67-1.23-1.16s-0.46-1.07-0.46-1.72
				c0-0.66,0.15-1.23,0.46-1.73c0.3-0.49,0.71-0.88,1.23-1.15c0.52-0.27,1.11-0.41,1.77-0.41c0.58,0,1.11,0.12,1.59,0.35
				c0.48,0.24,0.86,0.6,1.15,1.09c0.29,0.49,0.43,1.1,0.43,1.85c0,0.74-0.14,1.35-0.43,1.84c-0.29,0.49-0.67,0.85-1.15,1.1
				C524.89,38.47,524.36,38.59,523.78,38.59z M523.93,41.44c-0.63,0-1.23-0.09-1.82-0.26c-0.59-0.18-1.06-0.43-1.43-0.75l0.59-0.95
				c0.32,0.27,0.71,0.49,1.17,0.65c0.46,0.16,0.95,0.24,1.45,0.24c0.8,0,1.39-0.19,1.77-0.57s0.57-0.95,0.57-1.72v-1.44l0.13-1.35
				l-0.06-1.36v-1.86h1.17v5.88c0,1.2-0.3,2.08-0.9,2.65C525.96,41.16,525.09,41.44,523.93,41.44z M523.92,37.51
				c0.45,0,0.86-0.09,1.21-0.28s0.63-0.45,0.83-0.78s0.3-0.72,0.3-1.16c0-0.44-0.1-0.82-0.3-1.16s-0.48-0.59-0.83-0.78
				c-0.35-0.18-0.75-0.28-1.21-0.28c-0.46,0-0.86,0.09-1.21,0.28c-0.36,0.18-0.63,0.44-0.83,0.78s-0.3,0.72-0.3,1.16
				c0,0.44,0.1,0.82,0.3,1.16s0.48,0.6,0.83,0.78S523.46,37.51,523.92,37.51z"/>
			<path class="st2" d="M531.8,38.95c-0.51,0-0.95-0.09-1.33-0.26s-0.67-0.41-0.88-0.71c-0.21-0.3-0.31-0.65-0.31-1.03
				c0-0.37,0.09-0.7,0.26-1s0.46-0.54,0.86-0.72c0.4-0.18,0.94-0.27,1.61-0.27h2.16v0.89h-2.11c-0.62,0-1.03,0.1-1.25,0.31
				c-0.21,0.21-0.32,0.45-0.32,0.75c0,0.33,0.13,0.6,0.4,0.8s0.63,0.3,1.1,0.3c0.46,0,0.87-0.1,1.21-0.31
				c0.35-0.21,0.6-0.51,0.75-0.9l0.24,0.85c-0.16,0.4-0.45,0.72-0.86,0.96C532.95,38.83,532.43,38.95,531.8,38.95z M534.04,38.87
				v-1.44l-0.06-0.27v-2.45c0-0.52-0.15-0.93-0.46-1.21c-0.3-0.29-0.76-0.43-1.37-0.43c-0.4,0-0.8,0.07-1.18,0.2
				c-0.39,0.13-0.71,0.31-0.98,0.53l-0.51-0.92c0.35-0.28,0.77-0.5,1.27-0.65c0.49-0.15,1.01-0.22,1.55-0.22
				c0.93,0,1.65,0.23,2.16,0.68c0.51,0.45,0.76,1.15,0.76,2.08v4.11H534.04z"/>
			<path class="st2" d="M537.49,38.87v-6.81h1.18v1.85l-0.12-0.46c0.19-0.47,0.51-0.83,0.95-1.08S540.5,32,541.16,32v1.19
				c-0.05-0.01-0.1-0.01-0.15-0.01s-0.09,0-0.13,0c-0.66,0-1.18,0.2-1.57,0.59c-0.39,0.39-0.58,0.96-0.58,1.71v3.39H537.49z"/>
			<path class="st2" d="M152.47,54.29v-6.81h1.18v1.85l-0.12-0.46c0.19-0.47,0.5-0.83,0.95-1.08s0.99-0.37,1.64-0.37v1.19
				c-0.05-0.01-0.1-0.01-0.15-0.01s-0.09,0-0.13,0c-0.66,0-1.18,0.2-1.57,0.59c-0.39,0.39-0.58,0.96-0.58,1.71v3.39H152.47z"/>
			<path class="st2" d="M159.73,54.36c-0.51,0-0.95-0.09-1.33-0.26s-0.67-0.41-0.88-0.71c-0.21-0.3-0.31-0.65-0.31-1.03
				c0-0.37,0.09-0.7,0.26-1s0.46-0.54,0.86-0.72c0.4-0.18,0.94-0.27,1.61-0.27h2.16v0.89H160c-0.62,0-1.03,0.1-1.25,0.31
				s-0.32,0.45-0.32,0.75c0,0.33,0.13,0.6,0.4,0.8s0.63,0.3,1.1,0.3c0.46,0,0.87-0.1,1.21-0.31s0.6-0.51,0.75-0.9l0.24,0.85
				c-0.16,0.4-0.45,0.72-0.86,0.96C160.87,54.25,160.35,54.36,159.73,54.36z M161.96,54.29v-1.44l-0.06-0.27v-2.45
				c0-0.52-0.15-0.93-0.46-1.21c-0.3-0.29-0.76-0.43-1.37-0.43c-0.4,0-0.8,0.07-1.18,0.2c-0.39,0.13-0.71,0.31-0.98,0.53l-0.51-0.92
				c0.35-0.28,0.77-0.5,1.27-0.65c0.49-0.15,1.01-0.22,1.55-0.22c0.93,0,1.65,0.23,2.16,0.68c0.51,0.45,0.76,1.15,0.76,2.08v4.11
				H161.96z"/>
			<path class="st2" d="M165.42,56.78v-9.3h1.18v1.84l-0.08,1.58l0.13,1.58v4.3H165.42z M169.02,54.36c-0.57,0-1.08-0.13-1.55-0.39
				c-0.47-0.26-0.84-0.65-1.12-1.16c-0.28-0.51-0.42-1.16-0.42-1.93c0-0.77,0.13-1.41,0.41-1.93c0.27-0.51,0.64-0.9,1.1-1.16
				s0.99-0.39,1.57-0.39c0.67,0,1.26,0.15,1.77,0.44c0.51,0.29,0.92,0.7,1.22,1.21c0.3,0.52,0.45,1.12,0.45,1.82
				c0,0.69-0.15,1.3-0.45,1.82c-0.3,0.52-0.71,0.93-1.22,1.22C170.28,54.22,169.69,54.36,169.02,54.36z M168.92,53.28
				c0.44,0,0.83-0.1,1.17-0.3c0.35-0.2,0.62-0.48,0.82-0.84c0.2-0.36,0.3-0.79,0.3-1.27c0-0.49-0.1-0.91-0.3-1.27
				c-0.2-0.36-0.48-0.63-0.82-0.83c-0.35-0.2-0.74-0.3-1.17-0.3c-0.43,0-0.82,0.1-1.16,0.3c-0.35,0.2-0.62,0.47-0.82,0.83
				c-0.2,0.35-0.3,0.78-0.3,1.27c0,0.48,0.1,0.9,0.3,1.27c0.2,0.36,0.47,0.64,0.82,0.84C168.11,53.19,168.49,53.28,168.92,53.28z"/>
			<path class="st2" d="M174.79,46.17c-0.24,0-0.44-0.08-0.6-0.23c-0.16-0.15-0.24-0.34-0.24-0.57c0-0.23,0.08-0.42,0.24-0.58
				c0.16-0.15,0.36-0.23,0.6-0.23c0.24,0,0.44,0.08,0.6,0.22c0.16,0.15,0.24,0.34,0.24,0.56c0,0.23-0.08,0.43-0.23,0.58
				C175.24,46.09,175.04,46.17,174.79,46.17z M174.18,54.29v-6.81h1.23v6.81H174.18z"/>
			<path class="st2" d="M180.57,54.36c-0.66,0-1.25-0.15-1.77-0.44c-0.52-0.29-0.93-0.7-1.23-1.22c-0.3-0.52-0.45-1.13-0.45-1.82
				c0-0.69,0.15-1.3,0.45-1.82c0.3-0.52,0.71-0.92,1.23-1.21c0.52-0.29,1.11-0.44,1.77-0.44c0.57,0,1.09,0.13,1.55,0.39
				c0.46,0.26,0.83,0.64,1.11,1.16c0.28,0.51,0.42,1.16,0.42,1.93c0,0.77-0.13,1.41-0.4,1.93c-0.27,0.51-0.64,0.9-1.1,1.16
				C181.69,54.23,181.16,54.36,180.57,54.36z M180.68,53.28c0.43,0,0.82-0.1,1.16-0.3c0.35-0.2,0.62-0.48,0.82-0.84
				c0.2-0.36,0.3-0.79,0.3-1.27c0-0.49-0.1-0.91-0.3-1.27c-0.2-0.36-0.48-0.63-0.82-0.83c-0.35-0.2-0.73-0.3-1.16-0.3
				c-0.44,0-0.83,0.1-1.17,0.3c-0.34,0.2-0.62,0.47-0.82,0.83c-0.21,0.35-0.31,0.78-0.31,1.27c0,0.48,0.1,0.9,0.31,1.27
				c0.21,0.36,0.48,0.64,0.82,0.84C179.85,53.19,180.24,53.28,180.68,53.28z M183,54.29v-1.84l0.08-1.58l-0.13-1.58v-4.53h1.23v9.53
				H183z"/>
			<path class="st2" d="M188.51,54.36c-0.51,0-0.95-0.09-1.33-0.26s-0.67-0.41-0.88-0.71c-0.21-0.3-0.31-0.65-0.31-1.03
				c0-0.37,0.09-0.7,0.26-1s0.46-0.54,0.86-0.72c0.4-0.18,0.94-0.27,1.61-0.27h2.16v0.89h-2.11c-0.62,0-1.03,0.1-1.25,0.31
				s-0.32,0.45-0.32,0.75c0,0.33,0.13,0.6,0.4,0.8s0.63,0.3,1.1,0.3c0.46,0,0.87-0.1,1.21-0.31s0.6-0.51,0.75-0.9l0.24,0.85
				c-0.16,0.4-0.45,0.72-0.86,0.96C189.65,54.25,189.14,54.36,188.51,54.36z M190.75,54.29v-1.44l-0.06-0.27v-2.45
				c0-0.52-0.15-0.93-0.46-1.21c-0.3-0.29-0.76-0.43-1.37-0.43c-0.4,0-0.8,0.07-1.18,0.2c-0.39,0.13-0.71,0.31-0.98,0.53l-0.51-0.92
				c0.35-0.28,0.77-0.5,1.27-0.65c0.49-0.15,1.01-0.22,1.55-0.22c0.93,0,1.65,0.23,2.16,0.68c0.51,0.45,0.76,1.15,0.76,2.08v4.11
				H190.75z"/>
			<path class="st2" d="M194.2,54.29v-6.81h1.18v1.81l-0.19-0.46c0.21-0.45,0.54-0.79,0.99-1.04c0.44-0.25,0.96-0.37,1.55-0.37
				c0.65,0,1.21,0.16,1.68,0.48c0.47,0.32,0.78,0.81,0.92,1.46l-0.5-0.21c0.21-0.52,0.57-0.94,1.08-1.26
				c0.51-0.32,1.11-0.48,1.8-0.48c0.55,0,1.03,0.11,1.45,0.32c0.42,0.21,0.75,0.54,0.98,0.98c0.24,0.44,0.35,0.99,0.35,1.66v3.92
				h-1.23v-3.78c0-0.66-0.15-1.16-0.46-1.49c-0.31-0.33-0.74-0.5-1.3-0.5c-0.41,0-0.77,0.09-1.08,0.26
				c-0.31,0.17-0.55,0.42-0.71,0.76c-0.17,0.33-0.25,0.75-0.25,1.25v3.51h-1.23v-3.78c0-0.66-0.15-1.16-0.46-1.49s-0.74-0.5-1.3-0.5
				c-0.4,0-0.76,0.09-1.07,0.26c-0.31,0.17-0.55,0.42-0.72,0.76c-0.17,0.33-0.26,0.75-0.26,1.25v3.51H194.2z"/>
			<path class="st2" d="M210.81,54.36c-0.73,0-1.37-0.15-1.92-0.45c-0.55-0.3-0.98-0.71-1.29-1.23c-0.3-0.52-0.46-1.12-0.46-1.8
				s0.15-1.28,0.44-1.8c0.3-0.52,0.7-0.93,1.22-1.23c0.52-0.3,1.1-0.44,1.75-0.44c0.66,0,1.24,0.15,1.75,0.44
				c0.5,0.29,0.9,0.7,1.19,1.23c0.29,0.53,0.43,1.14,0.43,1.84c0,0.05,0,0.11-0.01,0.18c0,0.07-0.01,0.13-0.02,0.19h-5.79v-0.89
				h5.15l-0.5,0.31c0.01-0.44-0.08-0.83-0.27-1.17s-0.45-0.61-0.78-0.8c-0.33-0.19-0.71-0.29-1.15-0.29c-0.43,0-0.81,0.1-1.14,0.29
				c-0.33,0.19-0.6,0.46-0.78,0.81s-0.28,0.74-0.28,1.19v0.21c0,0.45,0.1,0.86,0.31,1.21c0.21,0.36,0.5,0.63,0.88,0.83
				c0.38,0.2,0.81,0.3,1.3,0.3c0.4,0,0.77-0.07,1.1-0.21c0.33-0.14,0.62-0.34,0.87-0.62l0.68,0.8c-0.31,0.36-0.69,0.63-1.15,0.82
				C211.89,54.27,211.38,54.36,210.81,54.36z"/>
			<path class="st2" d="M215.64,54.29v-6.81h1.18v1.84l-0.19-0.49c0.22-0.45,0.57-0.79,1.03-1.04c0.46-0.25,1-0.37,1.62-0.37
				c0.56,0,1.05,0.11,1.47,0.32c0.42,0.21,0.76,0.54,1,0.98c0.24,0.44,0.36,0.99,0.36,1.66v3.92h-1.23v-3.78
				c0-0.66-0.16-1.16-0.48-1.49s-0.77-0.5-1.36-0.5c-0.44,0-0.82,0.09-1.14,0.26c-0.33,0.17-0.58,0.42-0.75,0.76
				c-0.18,0.33-0.26,0.75-0.26,1.25v3.51H215.64z"/>
			<path class="st2" d="M223.41,48.49v-1.02h4.34v1.02H223.41z M226.73,54.36c-0.69,0-1.22-0.18-1.59-0.55s-0.57-0.9-0.57-1.58
				v-6.24h1.23v6.19c0,0.37,0.09,0.65,0.28,0.85c0.18,0.2,0.45,0.3,0.79,0.3c0.38,0,0.71-0.11,0.96-0.32l0.39,0.89
				c-0.19,0.16-0.41,0.28-0.67,0.36S227.01,54.36,226.73,54.36z"/>
			<path class="st2" d="M232.74,54.36c-0.73,0-1.37-0.15-1.92-0.45c-0.55-0.3-0.98-0.71-1.29-1.23c-0.3-0.52-0.46-1.12-0.46-1.8
				s0.15-1.28,0.44-1.8c0.3-0.52,0.7-0.93,1.22-1.23c0.52-0.3,1.1-0.44,1.75-0.44c0.66,0,1.24,0.15,1.75,0.44
				c0.5,0.29,0.9,0.7,1.19,1.23c0.29,0.53,0.43,1.14,0.43,1.84c0,0.05,0,0.11-0.01,0.18c0,0.07-0.01,0.13-0.02,0.19h-5.79v-0.89
				h5.15l-0.5,0.31c0.01-0.44-0.08-0.83-0.27-1.17s-0.45-0.61-0.78-0.8c-0.33-0.19-0.71-0.29-1.15-0.29c-0.43,0-0.81,0.1-1.14,0.29
				c-0.33,0.19-0.6,0.46-0.78,0.81s-0.28,0.74-0.28,1.19v0.21c0,0.45,0.1,0.86,0.31,1.21c0.21,0.36,0.5,0.63,0.88,0.83
				c0.38,0.2,0.81,0.3,1.3,0.3c0.4,0,0.77-0.07,1.1-0.21c0.33-0.14,0.62-0.34,0.87-0.62l0.68,0.8c-0.31,0.36-0.69,0.63-1.15,0.82
				C233.81,54.27,233.3,54.36,232.74,54.36z"/>
			<path class="st2" d="M243.01,54.36c-0.51,0-0.95-0.09-1.33-0.26s-0.67-0.41-0.88-0.71c-0.21-0.3-0.31-0.65-0.31-1.03
				c0-0.37,0.09-0.7,0.26-1s0.46-0.54,0.86-0.72c0.4-0.18,0.94-0.27,1.61-0.27h2.16v0.89h-2.11c-0.62,0-1.03,0.1-1.25,0.31
				s-0.32,0.45-0.32,0.75c0,0.33,0.13,0.6,0.4,0.8s0.63,0.3,1.1,0.3c0.46,0,0.87-0.1,1.21-0.31s0.6-0.51,0.75-0.9l0.24,0.85
				c-0.16,0.4-0.45,0.72-0.86,0.96C244.15,54.25,243.64,54.36,243.01,54.36z M245.25,54.29v-1.44l-0.06-0.27v-2.45
				c0-0.52-0.15-0.93-0.46-1.21c-0.3-0.29-0.76-0.43-1.37-0.43c-0.4,0-0.8,0.07-1.18,0.2c-0.39,0.13-0.71,0.31-0.98,0.53l-0.51-0.92
				c0.35-0.28,0.77-0.5,1.27-0.65c0.49-0.15,1.01-0.22,1.55-0.22c0.93,0,1.65,0.23,2.16,0.68c0.51,0.45,0.76,1.15,0.76,2.08v4.11
				H245.25z"/>
			<path class="st2" d="M247.73,48.49v-1.02h4.34v1.02H247.73z M251.04,54.36c-0.69,0-1.22-0.18-1.59-0.55s-0.57-0.9-0.57-1.58
				v-6.24h1.23v6.19c0,0.37,0.09,0.65,0.28,0.85c0.18,0.2,0.45,0.3,0.79,0.3c0.38,0,0.71-0.11,0.96-0.32l0.39,0.89
				c-0.19,0.16-0.41,0.28-0.67,0.36S251.32,54.36,251.04,54.36z"/>
			<path class="st2" d="M257.05,54.36c-0.73,0-1.37-0.15-1.92-0.45c-0.55-0.3-0.98-0.71-1.29-1.23c-0.3-0.52-0.46-1.12-0.46-1.8
				s0.15-1.28,0.44-1.8c0.3-0.52,0.7-0.93,1.22-1.23c0.52-0.3,1.1-0.44,1.75-0.44c0.66,0,1.24,0.15,1.75,0.44
				c0.5,0.29,0.9,0.7,1.19,1.23c0.29,0.53,0.43,1.14,0.43,1.84c0,0.05,0,0.11-0.01,0.18c0,0.07-0.01,0.13-0.02,0.19h-5.79v-0.89
				h5.15l-0.5,0.31c0.01-0.44-0.08-0.83-0.27-1.17s-0.45-0.61-0.78-0.8c-0.33-0.19-0.71-0.29-1.15-0.29c-0.43,0-0.81,0.1-1.14,0.29
				c-0.33,0.19-0.6,0.46-0.78,0.81s-0.28,0.74-0.28,1.19v0.21c0,0.45,0.1,0.86,0.31,1.21c0.21,0.36,0.5,0.63,0.88,0.83
				c0.38,0.2,0.81,0.3,1.3,0.3c0.4,0,0.77-0.07,1.1-0.21c0.33-0.14,0.62-0.34,0.87-0.62l0.68,0.8c-0.31,0.36-0.69,0.63-1.15,0.82
				C258.13,54.27,257.62,54.36,257.05,54.36z M255.83,46.49l1.75-1.67h1.57l-2.16,1.67H255.83z"/>
			<path class="st2" d="M268.37,54.36c-0.73,0-1.37-0.15-1.92-0.45c-0.55-0.3-0.98-0.71-1.29-1.23c-0.3-0.52-0.46-1.12-0.46-1.8
				s0.15-1.28,0.44-1.8c0.3-0.52,0.7-0.93,1.22-1.23c0.52-0.3,1.1-0.44,1.75-0.44c0.66,0,1.24,0.15,1.75,0.44
				c0.5,0.29,0.9,0.7,1.19,1.23c0.29,0.53,0.43,1.14,0.43,1.84c0,0.05,0,0.11-0.01,0.18c0,0.07-0.01,0.13-0.02,0.19h-5.79v-0.89
				h5.15l-0.5,0.31c0.01-0.44-0.08-0.83-0.27-1.17s-0.45-0.61-0.78-0.8c-0.33-0.19-0.71-0.29-1.15-0.29c-0.43,0-0.81,0.1-1.14,0.29
				c-0.33,0.19-0.6,0.46-0.78,0.81s-0.28,0.74-0.28,1.19v0.21c0,0.45,0.1,0.86,0.31,1.21c0.21,0.36,0.5,0.63,0.88,0.83
				c0.38,0.2,0.81,0.3,1.3,0.3c0.4,0,0.77-0.07,1.1-0.21c0.33-0.14,0.62-0.34,0.87-0.62l0.68,0.8c-0.31,0.36-0.69,0.63-1.15,0.82
				C269.44,54.27,268.93,54.36,268.37,54.36z"/>
			<path class="st2" d="M275.15,54.36c-0.56,0-1.1-0.08-1.61-0.23c-0.51-0.15-0.91-0.34-1.2-0.56l0.51-0.98
				c0.29,0.2,0.65,0.36,1.08,0.5c0.43,0.14,0.86,0.21,1.31,0.21c0.57,0,0.99-0.08,1.24-0.24c0.25-0.16,0.38-0.39,0.38-0.68
				c0-0.21-0.08-0.38-0.23-0.5c-0.15-0.12-0.36-0.21-0.61-0.27s-0.53-0.11-0.84-0.16c-0.31-0.05-0.62-0.11-0.92-0.18
				c-0.31-0.07-0.59-0.18-0.85-0.31c-0.26-0.13-0.46-0.32-0.62-0.55c-0.15-0.24-0.23-0.55-0.23-0.94c0-0.41,0.12-0.77,0.35-1.08
				c0.23-0.31,0.56-0.55,0.98-0.71s0.93-0.25,1.51-0.25c0.45,0,0.9,0.05,1.36,0.16s0.83,0.26,1.12,0.46l-0.53,0.98
				c-0.31-0.21-0.63-0.35-0.96-0.42s-0.67-0.12-1-0.12c-0.54,0-0.94,0.09-1.21,0.26c-0.27,0.18-0.4,0.4-0.4,0.67
				c0,0.23,0.08,0.41,0.24,0.53c0.16,0.12,0.36,0.22,0.62,0.29c0.25,0.07,0.53,0.13,0.84,0.17c0.31,0.05,0.62,0.11,0.92,0.18
				s0.59,0.17,0.84,0.3c0.25,0.13,0.46,0.31,0.62,0.54c0.16,0.23,0.24,0.54,0.24,0.92c0,0.41-0.12,0.77-0.36,1.07
				c-0.24,0.3-0.58,0.53-1.01,0.7S275.76,54.36,275.15,54.36z"/>
			<path class="st2" d="M281.59,54.36c-0.56,0-1.1-0.08-1.61-0.23c-0.51-0.15-0.91-0.34-1.2-0.56l0.51-0.98
				c0.29,0.2,0.65,0.36,1.08,0.5c0.43,0.14,0.86,0.21,1.31,0.21c0.57,0,0.99-0.08,1.24-0.24c0.25-0.16,0.38-0.39,0.38-0.68
				c0-0.21-0.08-0.38-0.23-0.5c-0.15-0.12-0.36-0.21-0.61-0.27s-0.53-0.11-0.84-0.16c-0.31-0.05-0.62-0.11-0.92-0.18
				c-0.31-0.07-0.59-0.18-0.85-0.31c-0.26-0.13-0.46-0.32-0.62-0.55c-0.15-0.24-0.23-0.55-0.23-0.94c0-0.41,0.12-0.77,0.35-1.08
				c0.23-0.31,0.56-0.55,0.98-0.71s0.93-0.25,1.51-0.25c0.45,0,0.9,0.05,1.36,0.16s0.83,0.26,1.12,0.46l-0.53,0.98
				c-0.31-0.21-0.63-0.35-0.96-0.42s-0.67-0.12-1-0.12c-0.54,0-0.94,0.09-1.21,0.26c-0.27,0.18-0.4,0.4-0.4,0.67
				c0,0.23,0.08,0.41,0.24,0.53c0.16,0.12,0.36,0.22,0.62,0.29c0.25,0.07,0.53,0.13,0.84,0.17c0.31,0.05,0.62,0.11,0.92,0.18
				s0.59,0.17,0.84,0.3c0.25,0.13,0.46,0.31,0.62,0.54c0.16,0.23,0.24,0.54,0.24,0.92c0,0.41-0.12,0.77-0.36,1.07
				c-0.24,0.3-0.58,0.53-1.01,0.7S282.19,54.36,281.59,54.36z"/>
			<path class="st2" d="M288.06,54.36c-0.51,0-0.95-0.09-1.33-0.26s-0.67-0.41-0.88-0.71c-0.21-0.3-0.31-0.65-0.31-1.03
				c0-0.37,0.09-0.7,0.26-1s0.46-0.54,0.86-0.72c0.4-0.18,0.94-0.27,1.61-0.27h2.16v0.89h-2.11c-0.62,0-1.03,0.1-1.25,0.31
				s-0.32,0.45-0.32,0.75c0,0.33,0.13,0.6,0.4,0.8s0.63,0.3,1.1,0.3c0.46,0,0.87-0.1,1.21-0.31c0.35-0.21,0.6-0.51,0.75-0.9
				l0.24,0.85c-0.16,0.4-0.45,0.72-0.86,0.96C289.2,54.25,288.68,54.36,288.06,54.36z M290.29,54.29v-1.44l-0.06-0.27v-2.45
				c0-0.52-0.15-0.93-0.46-1.21c-0.3-0.29-0.76-0.43-1.37-0.43c-0.4,0-0.8,0.07-1.18,0.2c-0.39,0.13-0.71,0.31-0.98,0.53l-0.51-0.92
				c0.35-0.28,0.77-0.5,1.27-0.65c0.49-0.15,1.01-0.22,1.55-0.22c0.93,0,1.65,0.23,2.16,0.68c0.51,0.45,0.76,1.15,0.76,2.08v4.11
				H290.29z"/>
			<path class="st2" d="M299.16,54.36c-0.56,0-1.1-0.08-1.61-0.23c-0.51-0.15-0.91-0.34-1.2-0.56l0.51-0.98
				c0.29,0.2,0.65,0.36,1.08,0.5c0.43,0.14,0.86,0.21,1.31,0.21c0.57,0,0.99-0.08,1.24-0.24s0.38-0.39,0.38-0.68
				c0-0.21-0.08-0.38-0.23-0.5c-0.15-0.12-0.36-0.21-0.61-0.27c-0.25-0.06-0.53-0.11-0.84-0.16c-0.31-0.05-0.62-0.11-0.93-0.18
				s-0.59-0.18-0.85-0.31c-0.26-0.13-0.46-0.32-0.62-0.55c-0.15-0.24-0.23-0.55-0.23-0.94c0-0.41,0.12-0.77,0.35-1.08
				c0.23-0.31,0.56-0.55,0.98-0.71s0.93-0.25,1.51-0.25c0.45,0,0.9,0.05,1.36,0.16c0.46,0.11,0.83,0.26,1.12,0.46l-0.53,0.98
				c-0.31-0.21-0.63-0.35-0.96-0.42s-0.67-0.12-1-0.12c-0.54,0-0.94,0.09-1.21,0.26c-0.27,0.18-0.4,0.4-0.4,0.67
				c0,0.23,0.08,0.41,0.24,0.53c0.16,0.12,0.37,0.22,0.62,0.29c0.25,0.07,0.53,0.13,0.84,0.17c0.31,0.05,0.62,0.11,0.92,0.18
				s0.59,0.17,0.84,0.3s0.46,0.31,0.62,0.54c0.16,0.23,0.24,0.54,0.24,0.92c0,0.41-0.12,0.77-0.36,1.07s-0.58,0.53-1.01,0.7
				C300.29,54.28,299.77,54.36,299.16,54.36z"/>
			<path class="st2" d="M306.67,54.36c-0.73,0-1.37-0.15-1.92-0.45c-0.55-0.3-0.98-0.71-1.29-1.23s-0.46-1.12-0.46-1.8
				s0.15-1.28,0.44-1.8c0.3-0.52,0.7-0.93,1.22-1.23c0.52-0.3,1.1-0.44,1.75-0.44c0.66,0,1.24,0.15,1.75,0.44
				c0.51,0.29,0.9,0.7,1.19,1.23c0.29,0.53,0.43,1.14,0.43,1.84c0,0.05,0,0.11-0.01,0.18c-0.01,0.07-0.01,0.13-0.02,0.19h-5.79
				v-0.89h5.15l-0.5,0.31c0.01-0.44-0.08-0.83-0.27-1.17c-0.19-0.34-0.45-0.61-0.78-0.8c-0.33-0.19-0.71-0.29-1.15-0.29
				c-0.43,0-0.81,0.1-1.14,0.29c-0.33,0.19-0.6,0.46-0.79,0.81c-0.19,0.35-0.28,0.74-0.28,1.19v0.21c0,0.45,0.1,0.86,0.31,1.21
				c0.21,0.36,0.5,0.63,0.88,0.83c0.38,0.2,0.81,0.3,1.3,0.3c0.4,0,0.77-0.07,1.1-0.21c0.33-0.14,0.62-0.34,0.87-0.62l0.68,0.8
				c-0.31,0.36-0.69,0.63-1.15,0.82C307.75,54.27,307.24,54.36,306.67,54.36z"/>
			<path class="st2" d="M314.47,54.36c-0.69,0-1.31-0.15-1.86-0.45c-0.54-0.3-0.97-0.71-1.28-1.23s-0.46-1.12-0.46-1.8
				s0.15-1.28,0.46-1.8s0.73-0.93,1.28-1.23c0.54-0.3,1.16-0.44,1.86-0.44c0.62,0,1.17,0.12,1.65,0.37
				c0.48,0.24,0.86,0.61,1.12,1.09l-0.94,0.6c-0.22-0.33-0.49-0.58-0.81-0.74c-0.32-0.16-0.67-0.24-1.04-0.24
				c-0.45,0-0.84,0.1-1.19,0.3c-0.35,0.2-0.63,0.47-0.84,0.83c-0.21,0.35-0.31,0.78-0.31,1.27c0,0.49,0.1,0.91,0.31,1.27
				s0.48,0.64,0.84,0.83c0.35,0.2,0.75,0.3,1.19,0.3c0.37,0,0.71-0.08,1.04-0.24c0.32-0.16,0.59-0.4,0.81-0.74l0.94,0.59
				c-0.27,0.47-0.64,0.83-1.12,1.09S315.09,54.36,314.47,54.36z"/>
			<path class="st2" d="M321.8,54.36c-0.69,0-1.31-0.15-1.86-0.45c-0.54-0.3-0.97-0.71-1.28-1.23s-0.46-1.12-0.46-1.8
				s0.15-1.28,0.46-1.8s0.73-0.93,1.28-1.23c0.54-0.3,1.16-0.44,1.86-0.44c0.62,0,1.17,0.12,1.65,0.37
				c0.48,0.24,0.86,0.61,1.12,1.09l-0.94,0.6c-0.22-0.33-0.49-0.58-0.81-0.74c-0.32-0.16-0.67-0.24-1.04-0.24
				c-0.45,0-0.84,0.1-1.19,0.3c-0.35,0.2-0.63,0.47-0.84,0.83c-0.21,0.35-0.31,0.78-0.31,1.27c0,0.49,0.1,0.91,0.31,1.27
				s0.48,0.64,0.84,0.83c0.35,0.2,0.75,0.3,1.19,0.3c0.37,0,0.71-0.08,1.04-0.24c0.32-0.16,0.59-0.4,0.81-0.74l0.94,0.59
				c-0.27,0.47-0.64,0.83-1.12,1.09S322.42,54.36,321.8,54.36z M321.29,57.16c-0.22,0-0.43-0.02-0.62-0.07
				c-0.19-0.05-0.36-0.12-0.53-0.21l0.27-0.63c0.14,0.08,0.28,0.13,0.42,0.17c0.14,0.03,0.29,0.05,0.46,0.05
				c0.25,0,0.43-0.04,0.54-0.13c0.12-0.09,0.17-0.22,0.17-0.38c0-0.15-0.06-0.28-0.17-0.37c-0.12-0.09-0.3-0.13-0.56-0.13h-0.35
				l0.32-1.26h0.71l-0.19,0.73c0.37,0.03,0.65,0.15,0.84,0.35c0.19,0.2,0.28,0.44,0.28,0.72c0,0.36-0.14,0.64-0.44,0.85
				S321.77,57.16,321.29,57.16z"/>
			<path class="st2" d="M328.16,54.36c-0.51,0-0.95-0.09-1.33-0.26s-0.67-0.41-0.88-0.71c-0.21-0.3-0.31-0.65-0.31-1.03
				c0-0.37,0.09-0.7,0.26-1s0.46-0.54,0.86-0.72s0.94-0.27,1.61-0.27h2.16v0.89h-2.11c-0.62,0-1.03,0.1-1.25,0.31
				c-0.21,0.21-0.32,0.45-0.32,0.75c0,0.33,0.13,0.6,0.4,0.8s0.63,0.3,1.11,0.3c0.46,0,0.87-0.1,1.21-0.31
				c0.35-0.21,0.6-0.51,0.75-0.9l0.24,0.85c-0.16,0.4-0.45,0.72-0.86,0.96C329.3,54.25,328.79,54.36,328.16,54.36z M330.4,54.29
				v-1.44l-0.06-0.27v-2.45c0-0.52-0.15-0.93-0.46-1.21c-0.3-0.29-0.76-0.43-1.37-0.43c-0.4,0-0.8,0.07-1.18,0.2
				s-0.71,0.31-0.98,0.53l-0.51-0.92c0.35-0.28,0.77-0.5,1.27-0.65c0.49-0.15,1.01-0.22,1.55-0.22c0.93,0,1.65,0.23,2.16,0.68
				c0.51,0.45,0.76,1.15,0.76,2.08v4.11H330.4z M329.64,46.45c-0.21,0-0.39-0.04-0.55-0.13s-0.3-0.19-0.43-0.3
				c-0.13-0.12-0.25-0.22-0.37-0.3c-0.12-0.09-0.24-0.13-0.36-0.13c-0.19,0-0.34,0.07-0.46,0.21c-0.12,0.14-0.18,0.34-0.2,0.58
				h-0.69c0.02-0.48,0.14-0.86,0.36-1.14s0.52-0.42,0.9-0.42c0.21,0,0.39,0.04,0.55,0.13s0.31,0.19,0.44,0.31
				c0.13,0.12,0.25,0.22,0.37,0.3s0.23,0.13,0.35,0.13c0.19,0,0.34-0.07,0.46-0.21c0.12-0.14,0.18-0.33,0.19-0.57h0.69
				c-0.01,0.45-0.12,0.82-0.35,1.1C330.32,46.31,330.02,46.45,329.64,46.45z"/>
			<path class="st2" d="M336.77,54.36c-0.68,0-1.28-0.15-1.82-0.45s-0.96-0.71-1.27-1.24c-0.31-0.53-0.46-1.12-0.46-1.79
				c0-0.68,0.15-1.27,0.46-1.79s0.73-0.93,1.26-1.23s1.14-0.45,1.82-0.45c0.68,0,1.28,0.15,1.82,0.44c0.54,0.3,0.96,0.7,1.26,1.23
				c0.3,0.52,0.46,1.12,0.46,1.8s-0.15,1.28-0.46,1.8c-0.3,0.52-0.72,0.93-1.26,1.23S337.44,54.36,336.77,54.36z M336.77,53.28
				c0.44,0,0.83-0.1,1.17-0.3c0.35-0.2,0.62-0.48,0.82-0.84c0.2-0.36,0.29-0.79,0.29-1.27c0-0.49-0.1-0.91-0.29-1.27
				c-0.2-0.36-0.47-0.63-0.82-0.83c-0.35-0.2-0.74-0.3-1.17-0.3c-0.44,0-0.83,0.1-1.17,0.3c-0.34,0.2-0.62,0.47-0.82,0.83
				c-0.21,0.35-0.31,0.78-0.31,1.27c0,0.48,0.1,0.9,0.31,1.27c0.21,0.36,0.48,0.64,0.82,0.84
				C335.94,53.19,336.33,53.28,336.77,53.28z"/>
			<path class="st2" d="M348.49,54.36c-0.73,0-1.37-0.15-1.92-0.45s-0.98-0.71-1.29-1.23c-0.3-0.52-0.46-1.12-0.46-1.8
				s0.15-1.28,0.44-1.8s0.7-0.93,1.22-1.23c0.52-0.3,1.1-0.44,1.75-0.44c0.66,0,1.24,0.15,1.75,0.44c0.5,0.29,0.9,0.7,1.19,1.23
				c0.29,0.53,0.43,1.14,0.43,1.84c0,0.05,0,0.11-0.01,0.18c0,0.07-0.01,0.13-0.02,0.19h-5.79v-0.89h5.15l-0.5,0.31
				c0.01-0.44-0.08-0.83-0.27-1.17c-0.19-0.34-0.45-0.61-0.78-0.8c-0.33-0.19-0.71-0.29-1.15-0.29c-0.43,0-0.81,0.1-1.14,0.29
				c-0.33,0.19-0.6,0.46-0.78,0.81c-0.19,0.35-0.28,0.74-0.28,1.19v0.21c0,0.45,0.11,0.86,0.31,1.21c0.21,0.36,0.5,0.63,0.88,0.83
				c0.38,0.2,0.81,0.3,1.3,0.3c0.4,0,0.77-0.07,1.1-0.21c0.33-0.14,0.62-0.34,0.87-0.62l0.68,0.8c-0.31,0.36-0.69,0.63-1.15,0.82
				C349.57,54.27,349.06,54.36,348.49,54.36z"/>
			<path class="st2" d="M358.73,54.36c-0.56,0-1.1-0.08-1.61-0.23c-0.51-0.15-0.91-0.34-1.2-0.56l0.51-0.98
				c0.29,0.2,0.65,0.36,1.08,0.5c0.43,0.14,0.87,0.21,1.31,0.21c0.57,0,0.99-0.08,1.24-0.24c0.25-0.16,0.38-0.39,0.38-0.68
				c0-0.21-0.08-0.38-0.23-0.5c-0.15-0.12-0.36-0.21-0.61-0.27c-0.25-0.06-0.53-0.11-0.84-0.16c-0.31-0.05-0.62-0.11-0.92-0.18
				c-0.31-0.07-0.59-0.18-0.85-0.31c-0.26-0.13-0.46-0.32-0.62-0.55c-0.15-0.24-0.23-0.55-0.23-0.94c0-0.41,0.12-0.77,0.35-1.08
				s0.56-0.55,0.98-0.71s0.93-0.25,1.51-0.25c0.45,0,0.9,0.05,1.36,0.16c0.46,0.11,0.83,0.26,1.12,0.46l-0.53,0.98
				c-0.31-0.21-0.63-0.35-0.96-0.42s-0.67-0.12-1-0.12c-0.54,0-0.94,0.09-1.21,0.26c-0.27,0.18-0.4,0.4-0.4,0.67
				c0,0.23,0.08,0.41,0.24,0.53c0.16,0.12,0.36,0.22,0.62,0.29c0.25,0.07,0.53,0.13,0.84,0.17c0.31,0.05,0.62,0.11,0.93,0.18
				s0.59,0.17,0.84,0.3c0.25,0.13,0.46,0.31,0.62,0.54c0.16,0.23,0.24,0.54,0.24,0.92c0,0.41-0.12,0.77-0.36,1.07
				c-0.24,0.3-0.58,0.53-1.02,0.7C359.86,54.28,359.34,54.36,358.73,54.36z"/>
			<path class="st2" d="M365.21,54.36c-0.51,0-0.95-0.09-1.33-0.26s-0.67-0.41-0.88-0.71c-0.21-0.3-0.31-0.65-0.31-1.03
				c0-0.37,0.09-0.7,0.26-1s0.46-0.54,0.86-0.72s0.94-0.27,1.61-0.27h2.16v0.89h-2.11c-0.62,0-1.03,0.1-1.25,0.31
				c-0.21,0.21-0.32,0.45-0.32,0.75c0,0.33,0.13,0.6,0.4,0.8s0.63,0.3,1.11,0.3c0.46,0,0.87-0.1,1.21-0.31
				c0.35-0.21,0.6-0.51,0.75-0.9l0.24,0.85c-0.16,0.4-0.45,0.72-0.86,0.96C366.35,54.25,365.83,54.36,365.21,54.36z M367.44,54.29
				v-1.44l-0.06-0.27v-2.45c0-0.52-0.15-0.93-0.46-1.21c-0.3-0.29-0.76-0.43-1.37-0.43c-0.4,0-0.8,0.07-1.18,0.2
				s-0.71,0.31-0.98,0.53l-0.51-0.92c0.35-0.28,0.77-0.5,1.27-0.65c0.49-0.15,1.01-0.22,1.55-0.22c0.93,0,1.65,0.23,2.16,0.68
				c0.51,0.45,0.76,1.15,0.76,2.08v4.11H367.44z"/>
			<path class="st2" d="M370.9,54.29v-9.53h1.23v4.53L372,50.87l0.08,1.58v1.84H370.9z M374.51,54.36c-0.58,0-1.11-0.13-1.57-0.39
				c-0.47-0.26-0.83-0.65-1.1-1.16c-0.27-0.51-0.41-1.16-0.41-1.93c0-0.77,0.14-1.41,0.42-1.93c0.28-0.51,0.65-0.9,1.12-1.16
				s0.98-0.39,1.55-0.39c0.67,0,1.26,0.15,1.77,0.44c0.51,0.29,0.92,0.7,1.22,1.21c0.3,0.52,0.45,1.12,0.45,1.82
				c0,0.69-0.15,1.3-0.45,1.82c-0.3,0.52-0.71,0.93-1.22,1.22C375.76,54.22,375.17,54.36,374.51,54.36z M374.4,53.28
				c0.44,0,0.83-0.1,1.18-0.3c0.35-0.2,0.62-0.48,0.82-0.84c0.2-0.36,0.3-0.79,0.3-1.27c0-0.49-0.1-0.91-0.3-1.27
				c-0.2-0.36-0.48-0.63-0.82-0.83c-0.35-0.2-0.74-0.3-1.18-0.3c-0.43,0-0.81,0.1-1.16,0.3c-0.35,0.2-0.62,0.47-0.82,0.83
				c-0.2,0.35-0.3,0.78-0.3,1.27c0,0.48,0.1,0.9,0.3,1.27c0.2,0.36,0.47,0.64,0.82,0.84C373.59,53.19,373.97,53.28,374.4,53.28z"/>
			<path class="st2" d="M382.69,54.36c-0.73,0-1.37-0.15-1.92-0.45s-0.98-0.71-1.29-1.23c-0.3-0.52-0.46-1.12-0.46-1.8
				s0.15-1.28,0.44-1.8s0.7-0.93,1.22-1.23c0.52-0.3,1.1-0.44,1.75-0.44c0.66,0,1.24,0.15,1.75,0.44c0.5,0.29,0.9,0.7,1.19,1.23
				c0.29,0.53,0.43,1.14,0.43,1.84c0,0.05,0,0.11-0.01,0.18c0,0.07-0.01,0.13-0.02,0.19h-5.79v-0.89h5.15l-0.5,0.31
				c0.01-0.44-0.08-0.83-0.27-1.17c-0.19-0.34-0.45-0.61-0.78-0.8c-0.33-0.19-0.71-0.29-1.15-0.29c-0.43,0-0.81,0.1-1.14,0.29
				c-0.33,0.19-0.6,0.46-0.78,0.81c-0.19,0.35-0.28,0.74-0.28,1.19v0.21c0,0.45,0.11,0.86,0.31,1.21c0.21,0.36,0.5,0.63,0.88,0.83
				c0.38,0.2,0.81,0.3,1.3,0.3c0.4,0,0.77-0.07,1.1-0.21c0.33-0.14,0.62-0.34,0.87-0.62l0.68,0.8c-0.31,0.36-0.69,0.63-1.15,0.82
				C383.77,54.27,383.25,54.36,382.69,54.36z"/>
			<path class="st2" d="M387.52,54.29v-6.81h1.18v1.85l-0.12-0.46c0.19-0.47,0.51-0.83,0.95-1.08s0.99-0.37,1.64-0.37v1.19
				c-0.05-0.01-0.1-0.01-0.15-0.01s-0.09,0-0.13,0c-0.66,0-1.18,0.2-1.57,0.59c-0.39,0.39-0.58,0.96-0.58,1.71v3.39H387.52z"/>
			<path class="st2" d="M396.24,54.29v-6.81h1.18v1.81l-0.19-0.46c0.21-0.45,0.54-0.79,0.99-1.04s0.96-0.37,1.55-0.37
				c0.65,0,1.21,0.16,1.68,0.48c0.47,0.32,0.78,0.81,0.93,1.46l-0.5-0.21c0.21-0.52,0.57-0.94,1.08-1.26
				c0.51-0.32,1.11-0.48,1.8-0.48c0.55,0,1.03,0.11,1.45,0.32c0.42,0.21,0.75,0.54,0.98,0.98c0.23,0.44,0.35,0.99,0.35,1.66v3.92
				h-1.23v-3.78c0-0.66-0.15-1.16-0.46-1.49c-0.31-0.33-0.74-0.5-1.3-0.5c-0.41,0-0.77,0.09-1.08,0.26
				c-0.31,0.17-0.55,0.42-0.71,0.76c-0.17,0.33-0.25,0.75-0.25,1.25v3.51h-1.23v-3.78c0-0.66-0.15-1.16-0.46-1.49
				c-0.3-0.33-0.74-0.5-1.3-0.5c-0.4,0-0.76,0.09-1.07,0.26c-0.31,0.17-0.55,0.42-0.72,0.76c-0.17,0.33-0.26,0.75-0.26,1.25v3.51
				H396.24z"/>
			<path class="st2" d="M411.81,54.36c-0.51,0-0.95-0.09-1.33-0.26s-0.67-0.41-0.88-0.71c-0.21-0.3-0.31-0.65-0.31-1.03
				c0-0.37,0.09-0.7,0.26-1s0.46-0.54,0.86-0.72c0.4-0.18,0.94-0.27,1.61-0.27h2.16v0.89h-2.11c-0.62,0-1.03,0.1-1.25,0.31
				c-0.21,0.21-0.32,0.45-0.32,0.75c0,0.33,0.13,0.6,0.4,0.8s0.63,0.3,1.1,0.3c0.46,0,0.87-0.1,1.21-0.31
				c0.35-0.21,0.6-0.51,0.75-0.9l0.24,0.85c-0.16,0.4-0.45,0.72-0.86,0.96C412.95,54.25,412.43,54.36,411.81,54.36z M414.04,54.29
				v-1.44l-0.06-0.27v-2.45c0-0.52-0.15-0.93-0.46-1.21c-0.3-0.29-0.76-0.43-1.37-0.43c-0.4,0-0.8,0.07-1.18,0.2
				c-0.39,0.13-0.71,0.31-0.98,0.53l-0.51-0.92c0.35-0.28,0.77-0.5,1.27-0.65c0.49-0.15,1.01-0.22,1.55-0.22
				c0.93,0,1.65,0.23,2.16,0.68c0.51,0.45,0.76,1.15,0.76,2.08v4.11H414.04z"/>
			<path class="st2" d="M418.11,46.17c-0.24,0-0.44-0.08-0.6-0.23c-0.16-0.15-0.24-0.34-0.24-0.57c0-0.23,0.08-0.42,0.24-0.58
				c0.16-0.15,0.36-0.23,0.6-0.23c0.24,0,0.44,0.08,0.6,0.22c0.16,0.15,0.24,0.34,0.24,0.56c0,0.23-0.08,0.43-0.23,0.58
				C418.56,46.09,418.36,46.17,418.11,46.17z M417.5,54.29v-6.81h1.23v6.81H417.5z"/>
			<path class="st2" d="M423.03,54.36c-0.56,0-1.1-0.08-1.61-0.23c-0.51-0.15-0.91-0.34-1.2-0.56l0.51-0.98
				c0.29,0.2,0.65,0.36,1.08,0.5c0.43,0.14,0.86,0.21,1.31,0.21c0.57,0,0.99-0.08,1.24-0.24s0.38-0.39,0.38-0.68
				c0-0.21-0.08-0.38-0.23-0.5c-0.15-0.12-0.36-0.21-0.61-0.27c-0.25-0.06-0.53-0.11-0.84-0.16c-0.31-0.05-0.62-0.11-0.93-0.18
				s-0.59-0.18-0.85-0.31c-0.26-0.13-0.46-0.32-0.62-0.55c-0.15-0.24-0.23-0.55-0.23-0.94c0-0.41,0.12-0.77,0.35-1.08
				c0.23-0.31,0.56-0.55,0.98-0.71s0.93-0.25,1.51-0.25c0.45,0,0.9,0.05,1.36,0.16c0.46,0.11,0.83,0.26,1.12,0.46l-0.53,0.98
				c-0.31-0.21-0.63-0.35-0.96-0.42s-0.67-0.12-1-0.12c-0.54,0-0.94,0.09-1.21,0.26c-0.27,0.18-0.4,0.4-0.4,0.67
				c0,0.23,0.08,0.41,0.24,0.53c0.16,0.12,0.37,0.22,0.62,0.29c0.25,0.07,0.53,0.13,0.84,0.17c0.31,0.05,0.62,0.11,0.92,0.18
				s0.59,0.17,0.84,0.3s0.46,0.31,0.62,0.54c0.16,0.23,0.24,0.54,0.24,0.92c0,0.41-0.12,0.77-0.36,1.07s-0.58,0.53-1.01,0.7
				C424.16,54.28,423.64,54.36,423.03,54.36z"/>
			<path class="st2" d="M431.59,46.17c-0.24,0-0.44-0.08-0.6-0.23c-0.16-0.15-0.24-0.34-0.24-0.57c0-0.23,0.08-0.42,0.24-0.58
				c0.16-0.15,0.36-0.23,0.6-0.23c0.24,0,0.44,0.08,0.6,0.22c0.16,0.15,0.24,0.34,0.24,0.56c0,0.23-0.08,0.43-0.23,0.58
				C432.04,46.09,431.84,46.17,431.59,46.17z M430.97,54.29v-6.81h1.23v6.81H430.97z"/>
			<path class="st2" d="M434.55,54.29v-6.81h1.18v1.84l-0.19-0.49c0.22-0.45,0.56-0.79,1.03-1.04s1-0.37,1.62-0.37
				c0.56,0,1.05,0.11,1.47,0.32c0.42,0.21,0.76,0.54,1,0.98c0.24,0.44,0.36,0.99,0.36,1.66v3.92h-1.23v-3.78
				c0-0.66-0.16-1.16-0.48-1.49c-0.32-0.33-0.77-0.5-1.36-0.5c-0.44,0-0.82,0.09-1.14,0.26c-0.33,0.17-0.58,0.42-0.75,0.76
				c-0.18,0.33-0.26,0.75-0.26,1.25v3.51H434.55z"/>
			<path class="st2" d="M442.33,48.49v-1.02h4.34v1.02H442.33z M443.48,54.29v-7.41c0-0.67,0.2-1.2,0.59-1.6
				c0.39-0.4,0.94-0.6,1.66-0.6c0.27,0,0.52,0.03,0.77,0.1c0.24,0.06,0.45,0.17,0.62,0.3l-0.37,0.94c-0.13-0.1-0.28-0.18-0.44-0.24
				s-0.33-0.08-0.51-0.08c-0.36,0-0.63,0.1-0.82,0.3c-0.19,0.2-0.28,0.5-0.28,0.89v0.91l0.03,0.57v5.92H443.48z"/>
			<path class="st2" d="M450.75,54.36c-0.68,0-1.28-0.15-1.82-0.45s-0.96-0.71-1.27-1.24c-0.31-0.53-0.46-1.12-0.46-1.79
				c0-0.68,0.15-1.27,0.46-1.79s0.73-0.93,1.26-1.23s1.14-0.45,1.82-0.45c0.68,0,1.28,0.15,1.82,0.44c0.54,0.3,0.96,0.7,1.26,1.23
				c0.3,0.52,0.46,1.12,0.46,1.8s-0.15,1.28-0.46,1.8c-0.3,0.52-0.72,0.93-1.26,1.23S451.43,54.36,450.75,54.36z M450.75,53.28
				c0.44,0,0.83-0.1,1.17-0.3c0.35-0.2,0.62-0.48,0.82-0.84c0.2-0.36,0.29-0.79,0.29-1.27c0-0.49-0.1-0.91-0.29-1.27
				c-0.2-0.36-0.47-0.63-0.82-0.83c-0.35-0.2-0.74-0.3-1.17-0.3c-0.44,0-0.83,0.1-1.17,0.3c-0.34,0.2-0.62,0.47-0.82,0.83
				c-0.21,0.35-0.31,0.78-0.31,1.27c0,0.48,0.1,0.9,0.31,1.27c0.21,0.36,0.48,0.64,0.82,0.84
				C449.93,53.19,450.32,53.28,450.75,53.28z"/>
			<path class="st2" d="M455.99,54.29v-6.81h1.18v1.85l-0.12-0.46c0.19-0.47,0.5-0.83,0.95-1.08s0.99-0.37,1.64-0.37v1.19
				c-0.05-0.01-0.1-0.01-0.15-0.01s-0.09,0-0.13,0c-0.66,0-1.18,0.2-1.57,0.59c-0.38,0.39-0.58,0.96-0.58,1.71v3.39H455.99z"/>
			<path class="st2" d="M461.26,54.29v-6.81h1.18v1.81l-0.19-0.46c0.21-0.45,0.54-0.79,0.99-1.04s0.96-0.37,1.55-0.37
				c0.65,0,1.21,0.16,1.68,0.48c0.47,0.32,0.78,0.81,0.93,1.46l-0.5-0.21c0.21-0.52,0.57-0.94,1.08-1.26
				c0.51-0.32,1.11-0.48,1.8-0.48c0.55,0,1.03,0.11,1.45,0.32c0.42,0.21,0.75,0.54,0.98,0.98c0.23,0.44,0.35,0.99,0.35,1.66v3.92
				h-1.23v-3.78c0-0.66-0.15-1.16-0.46-1.49c-0.31-0.33-0.74-0.5-1.3-0.5c-0.41,0-0.77,0.09-1.08,0.26
				c-0.31,0.17-0.55,0.42-0.71,0.76c-0.17,0.33-0.25,0.75-0.25,1.25v3.51h-1.23v-3.78c0-0.66-0.15-1.16-0.46-1.49
				c-0.3-0.33-0.74-0.5-1.3-0.5c-0.4,0-0.76,0.09-1.07,0.26c-0.31,0.17-0.55,0.42-0.72,0.76c-0.17,0.33-0.26,0.75-0.26,1.25v3.51
				H461.26z"/>
			<path class="st2" d="M476.83,54.36c-0.51,0-0.95-0.09-1.33-0.26s-0.67-0.41-0.88-0.71c-0.21-0.3-0.31-0.65-0.31-1.03
				c0-0.37,0.09-0.7,0.26-1s0.46-0.54,0.86-0.72c0.4-0.18,0.94-0.27,1.61-0.27h2.16v0.89h-2.11c-0.62,0-1.03,0.1-1.25,0.31
				c-0.21,0.21-0.32,0.45-0.32,0.75c0,0.33,0.13,0.6,0.4,0.8s0.63,0.3,1.1,0.3c0.46,0,0.87-0.1,1.21-0.31
				c0.35-0.21,0.6-0.51,0.75-0.9l0.24,0.85c-0.16,0.4-0.45,0.72-0.86,0.96C477.97,54.25,477.45,54.36,476.83,54.36z M479.06,54.29
				v-1.44L479,52.58v-2.45c0-0.52-0.15-0.93-0.46-1.21c-0.3-0.29-0.76-0.43-1.37-0.43c-0.4,0-0.8,0.07-1.18,0.2
				c-0.39,0.13-0.71,0.31-0.98,0.53l-0.51-0.92c0.35-0.28,0.77-0.5,1.27-0.65c0.49-0.15,1.01-0.22,1.55-0.22
				c0.93,0,1.65,0.23,2.16,0.68c0.51,0.45,0.76,1.15,0.76,2.08v4.11H479.06z"/>
			<path class="st2" d="M485.48,54.36c-0.69,0-1.31-0.15-1.86-0.45s-0.97-0.71-1.28-1.23s-0.46-1.12-0.46-1.8s0.15-1.28,0.46-1.8
				s0.73-0.93,1.28-1.23c0.54-0.3,1.16-0.44,1.86-0.44c0.62,0,1.17,0.12,1.65,0.37c0.48,0.24,0.86,0.61,1.12,1.09l-0.94,0.6
				c-0.22-0.33-0.49-0.58-0.82-0.74c-0.32-0.16-0.67-0.24-1.03-0.24c-0.45,0-0.84,0.1-1.2,0.3c-0.35,0.2-0.63,0.47-0.83,0.83
				c-0.21,0.35-0.31,0.78-0.31,1.27c0,0.49,0.1,0.91,0.31,1.27s0.48,0.64,0.83,0.83c0.35,0.2,0.75,0.3,1.2,0.3
				c0.37,0,0.71-0.08,1.03-0.24c0.32-0.16,0.59-0.4,0.82-0.74l0.94,0.59c-0.27,0.47-0.64,0.83-1.12,1.09
				C486.65,54.24,486.1,54.36,485.48,54.36z M484.97,57.16c-0.22,0-0.43-0.02-0.62-0.07c-0.19-0.05-0.37-0.12-0.53-0.21l0.27-0.63
				c0.14,0.08,0.28,0.13,0.42,0.17s0.29,0.05,0.46,0.05c0.25,0,0.43-0.04,0.55-0.13s0.17-0.22,0.17-0.38c0-0.15-0.06-0.28-0.17-0.37
				s-0.3-0.13-0.56-0.13h-0.35l0.32-1.26h0.71l-0.19,0.73c0.37,0.03,0.65,0.15,0.83,0.35c0.19,0.2,0.28,0.44,0.28,0.72
				c0,0.36-0.15,0.64-0.44,0.85S485.45,57.16,484.97,57.16z"/>
			<path class="st2" d="M492.77,54.36c-0.68,0-1.28-0.15-1.82-0.45s-0.96-0.71-1.27-1.24c-0.31-0.53-0.46-1.12-0.46-1.79
				c0-0.68,0.15-1.27,0.46-1.79s0.73-0.93,1.26-1.23s1.14-0.45,1.82-0.45c0.68,0,1.28,0.15,1.82,0.44c0.54,0.3,0.96,0.7,1.26,1.23
				c0.3,0.52,0.46,1.12,0.46,1.8s-0.15,1.28-0.46,1.8c-0.3,0.52-0.72,0.93-1.26,1.23S493.45,54.36,492.77,54.36z M492.77,53.28
				c0.44,0,0.83-0.1,1.17-0.3c0.35-0.2,0.62-0.48,0.82-0.84c0.2-0.36,0.29-0.79,0.29-1.27c0-0.49-0.1-0.91-0.29-1.27
				c-0.2-0.36-0.47-0.63-0.82-0.83c-0.35-0.2-0.74-0.3-1.17-0.3c-0.44,0-0.83,0.1-1.17,0.3c-0.34,0.2-0.62,0.47-0.82,0.83
				c-0.21,0.35-0.31,0.78-0.31,1.27c0,0.48,0.1,0.9,0.31,1.27c0.21,0.36,0.48,0.64,0.82,0.84
				C491.94,53.19,492.33,53.28,492.77,53.28z M493.65,46.45c-0.21,0-0.39-0.04-0.54-0.13s-0.3-0.19-0.43-0.3
				c-0.13-0.12-0.25-0.22-0.37-0.3c-0.12-0.09-0.24-0.13-0.36-0.13c-0.19,0-0.34,0.07-0.46,0.21c-0.12,0.14-0.18,0.34-0.2,0.58
				h-0.69c0.02-0.48,0.14-0.86,0.36-1.14s0.52-0.42,0.9-0.42c0.21,0,0.39,0.04,0.55,0.13c0.16,0.09,0.31,0.19,0.44,0.31
				c0.13,0.12,0.25,0.22,0.37,0.3c0.12,0.09,0.23,0.13,0.35,0.13c0.19,0,0.34-0.07,0.46-0.21c0.12-0.14,0.18-0.33,0.19-0.57h0.69
				c-0.01,0.45-0.13,0.82-0.35,1.1S494.03,46.45,493.65,46.45z"/>
			<path class="st2" d="M501.04,54.36c-0.73,0-1.37-0.15-1.92-0.45c-0.55-0.3-0.98-0.71-1.29-1.23s-0.46-1.12-0.46-1.8
				s0.15-1.28,0.44-1.8c0.3-0.52,0.7-0.93,1.22-1.23c0.52-0.3,1.1-0.44,1.75-0.44c0.66,0,1.24,0.15,1.75,0.44
				c0.51,0.29,0.9,0.7,1.19,1.23c0.29,0.53,0.43,1.14,0.43,1.84c0,0.05,0,0.11-0.01,0.18c-0.01,0.07-0.01,0.13-0.02,0.19h-5.79
				v-0.89h5.15l-0.5,0.31c0.01-0.44-0.08-0.83-0.27-1.17c-0.19-0.34-0.45-0.61-0.78-0.8c-0.33-0.19-0.71-0.29-1.15-0.29
				c-0.43,0-0.81,0.1-1.14,0.29c-0.33,0.19-0.6,0.46-0.79,0.81c-0.19,0.35-0.28,0.74-0.28,1.19v0.21c0,0.45,0.1,0.86,0.31,1.21
				c0.21,0.36,0.5,0.63,0.88,0.83c0.38,0.2,0.81,0.3,1.3,0.3c0.4,0,0.77-0.07,1.1-0.21c0.33-0.14,0.62-0.34,0.87-0.62l0.68,0.8
				c-0.31,0.36-0.69,0.63-1.15,0.82C502.12,54.27,501.61,54.36,501.04,54.36z"/>
			<path class="st2" d="M507.82,54.36c-0.56,0-1.1-0.08-1.61-0.23c-0.51-0.15-0.91-0.34-1.2-0.56l0.51-0.98
				c0.29,0.2,0.65,0.36,1.08,0.5c0.43,0.14,0.86,0.21,1.31,0.21c0.57,0,0.99-0.08,1.24-0.24s0.38-0.39,0.38-0.68
				c0-0.21-0.08-0.38-0.23-0.5c-0.15-0.12-0.36-0.21-0.61-0.27c-0.25-0.06-0.53-0.11-0.84-0.16c-0.31-0.05-0.62-0.11-0.93-0.18
				s-0.59-0.18-0.85-0.31c-0.26-0.13-0.46-0.32-0.62-0.55c-0.15-0.24-0.23-0.55-0.23-0.94c0-0.41,0.12-0.77,0.35-1.08
				c0.23-0.31,0.56-0.55,0.98-0.71s0.93-0.25,1.51-0.25c0.45,0,0.9,0.05,1.36,0.16c0.46,0.11,0.83,0.26,1.12,0.46l-0.53,0.98
				c-0.31-0.21-0.63-0.35-0.96-0.42s-0.67-0.12-1-0.12c-0.54,0-0.94,0.09-1.21,0.26c-0.27,0.18-0.4,0.4-0.4,0.67
				c0,0.23,0.08,0.41,0.24,0.53c0.16,0.12,0.37,0.22,0.62,0.29c0.25,0.07,0.53,0.13,0.84,0.17c0.31,0.05,0.62,0.11,0.92,0.18
				s0.59,0.17,0.84,0.3s0.46,0.31,0.62,0.54c0.16,0.23,0.24,0.54,0.24,0.92c0,0.41-0.12,0.77-0.36,1.07s-0.58,0.53-1.01,0.7
				C508.95,54.28,508.43,54.36,507.82,54.36z"/>
			<path class="st2" d="M512.87,54.36c-0.24,0-0.44-0.08-0.6-0.24s-0.24-0.36-0.24-0.58c0-0.24,0.08-0.44,0.24-0.59
				s0.36-0.23,0.6-0.23s0.44,0.08,0.59,0.23s0.23,0.35,0.23,0.59c0,0.22-0.08,0.42-0.23,0.58S513.11,54.36,512.87,54.36z
				 M512.37,51.45l-0.23-6.15h1.45l-0.24,6.15H512.37z"/>
		</g>
	</g>
	<g>
		<path class="st3" d="M83.11,55.64c-0.34-0.38-0.85-0.35-1.23-0.07c-0.16,0.12-0.33,0.24-0.5,0.36c0.36-0.38,0.7-0.76,0.94-1.23
			c0.29-0.58,0.38-1.34-0.27-1.73c-0.62-0.38-1.24-0.06-1.68,0.41c-0.48,0.51-1.07,0.9-1.7,1.25c0.48-0.35,0.95-0.7,1.4-1.09
			c0.68-0.58,1.16-1.47,0.45-2.25c-0.2-0.22-0.53-0.34-0.82-0.27c-0.79,0.19-1.43,0.62-2.08,1.09c-0.69,0.5-1.43,0.92-2.19,1.32
			c-0.5,0.27-1,0.53-1.51,0.79l0.74-1.12c0.51-0.78-0.35-1.55-1.12-1.25c-1.15,0.45-2.2,1.12-3.11,1.95
			c-0.67,0.61-0.03,1.57,0.68,1.5c-0.19,0.25-0.39,0.49-0.64,0.68c-0.58,0.46-0.21,1.51,0.52,1.52c0.71,0.01,1.44-0.5,2.09-0.87
			c-0.02,0.02-0.05,0.04-0.07,0.06c-0.59,0.54-1.27,1.33-0.63,2.12c0.64,0.79,1.54,0.2,2.23-0.15c0.92-0.47,1.83-0.93,2.75-1.4
			c0.49-0.25,0.99-0.51,1.48-0.78c-0.06,0.17-0.09,0.34-0.09,0.52c0,1.07,1.13,1.25,1.96,1.09c0.88-0.18,1.63-0.72,2.34-1.24
			C83.42,56.59,83.41,55.97,83.11,55.64z"/>
		<path class="st4" d="M93.73,29.37c-0.8,0.54-1.59,1.09-2.39,1.63c-0.35,0.23-0.74,0.72-0.45,0.04c0.14-0.33,0.25-0.65,0.43-0.97
			c0.64-1.16,1.45-2.23,1.37-3.62c-0.04-0.68-0.86-1.31-1.45-0.7c-0.54,0.55-1.09,1.08-1.65,1.61c0.83-1.32,1.66-2.64,1.93-4.24
			c0.03-0.16-0.01-0.29-0.07-0.42c0.31-0.4,0.6-0.81,0.82-1.26c0.14-0.28,0.25-0.57,0.32-0.87c0.09-0.42,0.11-0.79,0.07-1.22
			c-0.02-0.21-0.21-0.44-0.37-0.55c-0.18-0.12-0.44-0.18-0.65-0.13c-0.22,0.06-0.43,0.17-0.55,0.37c-0.12,0.2-0.15,0.4-0.13,0.64
			c0-0.04-0.01-0.08-0.01-0.12c0.01,0.19-0.01,0.37-0.04,0.55c-0.05,0.19-0.11,0.38-0.19,0.56c-0.26,0.5-0.6,0.94-0.95,1.38
			c-0.13,0.17-0.17,0.45-0.13,0.65c0.01,0.03,0.03,0.07,0.04,0.1c-0.56,0.55-1.11,1.11-1.65,1.68c0.81-1.15,1.58-2.32,2.02-3.62
			c0.24-0.7-0.55-1.43-1.22-1.05c-1.52,0.85-2.47,2.15-3.3,3.55c0.2-0.86,0.39-1.73,0.52-2.61c0.13-0.82-0.9-1.11-1.45-0.7
			c-0.42,0.31-0.8,0.65-1.19,0.99c0.01-0.05,0.03-0.1,0.04-0.16c0.17-0.76-0.49-1.35-1.22-1.05c-0.62,0.25-1.18,0.58-1.71,0.95
			c0,0,0-0.01,0-0.01c0.01-0.22-0.07-0.48-0.22-0.64c-0.3-0.31-0.9-0.43-1.23-0.07c-0.19,0.21-0.38,0.42-0.57,0.63
			c0.01-0.05,0.01-0.1,0.02-0.15c0.01-0.03,0.06-0.25,0.02-0.11c-0.04,0.14,0.02-0.08,0.02-0.11c0.03-0.13,0.06-0.25,0.09-0.38
			c0.06-0.23,0.06-0.46-0.05-0.67c-0.09-0.19-0.29-0.37-0.5-0.43c-0.35-0.1-0.78,0.03-0.99,0.33c0-0.03,0-0.07,0-0.1
			c-0.02-0.61-0.64-1.2-1.26-0.83c-2.02,1.21-3.34,3.08-4.82,4.86c-0.95,1.13-1.98,2.19-3.06,3.18c1.64-2.93,3.81-5.61,3.99-9.1
			c0.04-0.81-0.85-1.14-1.45-0.7c-2.19,1.6-3.53,4.11-5.13,6.24c-0.22,0.3-0.46,0.58-0.68,0.88c0.74-1.33,1.35-2.71,1.6-4.28
			c0.11-0.71-0.96-1.27-1.45-0.7c-3.1,3.54-6.12,7.15-9.05,10.83c-0.26,0.32-0.22,0.65-0.04,0.9c-0.46,0.36-0.87,0.77-1.25,1.21
			c0.13-0.28,0.26-0.56,0.39-0.84c0.43-0.59,0.85-1.18,1.23-1.8c0.97-1.56,1.8-3.21,2.49-4.91c0.4-0.97-0.98-1.49-1.55-0.76
			c-0.1,0.13-0.2,0.27-0.29,0.4c-0.29-0.3-0.76-0.4-1.15-0.03c-1.22,1.2-2.48,2.44-3.29,3.97c-0.45,0.86-0.94,2.41-0.57,3.49
			c-0.42-0.23-0.87-0.11-1.17,0.26c-0.08,0.1-0.15,0.19-0.23,0.29c-0.02,0.02-0.03,0.03-0.04,0.04c-0.04,0.04-0.08,0.09-0.12,0.13
			c-0.07,0.07-0.14,0.14-0.21,0.2c0.12-0.19,0.25-0.38,0.38-0.57c0.28-0.4,0.56-0.8,0.78-1.24c0.28-0.54,0.45-1.08,0.56-1.68
			c0.1-0.51,0.3-1.23,0.04-1.71c-0.21-0.39-0.67-0.61-1.11-0.5c-0.34,0.09-0.6,0.35-0.85,0.58c-0.41,0.37-0.82,0.75-1.22,1.14
			c-0.94,0.92-1.83,1.9-2.68,2.92c-0.29,0.35-0.12,0.98,0.25,1.21c0.44,0.27,0.89,0.13,1.21-0.25c0.57-0.68,1.23-1.41,1.89-2.08
			c0.1-0.1,0.2-0.19,0.29-0.29c0,0,0,0,0,0c-0.42,0.72-0.97,1.36-1.35,2.11c-0.26,0.52-0.56,1.12-0.3,1.7
			c0.3,0.65,1.1,0.79,1.74,0.71c1.06-0.14,1.78-0.96,2.4-1.75c0.12-0.15,0.15-0.36,0.13-0.56c0.06,0.06,0.13,0.12,0.21,0.17
			c-1.16,2.24-2.59,4.44-3.11,6.91c-0.12,0.56,0.26,0.97,0.68,1.1c-0.09,0.38-0.16,0.77-0.19,1.17c-0.05,0.63,0.47,0.92,0.96,0.88
			c0.01,0.71,0.18,1.39,0.64,2.02c0.31,0.42,1.14,0.37,1.37-0.1c1.04-2.1,1.98-4.24,2.78-6.44c0.35-0.97,0.67-1.95,0.97-2.94
			c0.16,0.66,1.11,1.06,1.55,0.32c1.1-1.86,2.58-3.38,4.35-4.52c-0.2,0.28-0.4,0.56-0.59,0.85c-0.7,1.04-1.35,2.11-1.98,3.19
			c-0.26,0.44-0.13,0.89,0.25,1.21c0.92,0.78,2.02-0.24,2.74-0.82c0.79-0.64,1.57-1.3,2.36-1.95c-0.21,0.35-0.41,0.71-0.58,1.09
			c-0.26,0.56,0.4,1.34,1,1.13c1.7-0.59,3.2-1.68,4.78-2.54c-0.42,0.55-0.75,1.15-0.86,1.88c-0.23,1.64,1.1,2.66,2.58,1.83
			c0.03-0.02,0.07-0.04,0.1-0.06c0.15,0.47,0.62,0.83,1.17,0.51c1.42-0.83,2.53-2,3.59-3.23c0.48-0.56,0.95-1.12,1.44-1.67
			c0.04-0.04,0.08-0.08,0.12-0.12c-0.01,0.01-0.01,0.02-0.02,0.04c-0.44,0.79-0.94,1.55-1.28,2.39c-0.21,0.53-0.23,1.19,0.3,1.56
			c0.49,0.34,1.05,0.15,1.53-0.08c0.89-0.44,1.65-1.13,2.18-1.96c0.51-0.8-0.44-1.59-1.12-1.25c0.02-0.04,0.05-0.08,0.07-0.12
			c0.41-0.8,1.06-2.17,0.55-3.07c0.44-0.4,0.88-0.79,1.31-1.2c0.81-0.77-0.34-2.07-1.16-1.29c-0.53,0.5-1.07,0.97-1.61,1.45
			c1.47-1.75,2.92-3.52,4.57-5.08c-0.48,2.01-1.18,3.97-2.08,5.85c-0.4,0.83,0.8,1.45,1.41,0.93c0.04-0.03,0.07-0.07,0.11-0.1
			c-0.09,0.34-0.16,0.69-0.2,1.06c-0.1,0.91,1.11,1.2,1.59,0.54c0.82-1.13,1.69-2.22,2.59-3.28c-0.53,0.86-1,1.75-1.23,2.74
			c-0.19,0.83,0.7,1.51,1.41,0.93c0.7-0.58,1.37-1.19,2.04-1.8c-0.31,0.63-0.5,1.28-0.34,2.02c0.34,1.57,1.47,1.46,2.63,0.89
			c-0.94,1.27-2.17,2.32-3.62,3.06c-1,0.51-0.21,2.06,0.79,1.55c2.84-1.45,4.97-3.92,5.99-6.93C95.17,29.77,94.39,28.92,93.73,29.37
			z M54.82,34.15c-0.3,0.98-0.63,1.96-0.99,2.93c-0.05,0.14-0.12,0.29-0.17,0.43l0.22-0.72c0.1-0.34,0-0.61-0.19-0.81
			c0.37-0.63,0.74-1.29,1.15-1.93C54.84,34.08,54.83,34.11,54.82,34.15z M53.45,29.74c-0.01,0.02-0.02,0.03-0.03,0.05
			c0.02-0.15,0.04-0.29,0.08-0.43c0.15-0.58,0.45-1.1,0.77-1.59c0.11-0.16,0.23-0.31,0.34-0.47C54.21,28.1,53.83,28.92,53.45,29.74z
			 M76.91,23.34c0.15,0.17,0.34,0.25,0.54,0.29c-0.02,0.02-0.04,0.04-0.06,0.07c-0.53,0.58-1.06,1.15-1.59,1.73
			c0.1-0.19,0.19-0.38,0.27-0.57c0.27-0.63,0.46-1.28,0.63-1.94C76.74,23.07,76.8,23.21,76.91,23.34z M75.31,20.8
			c-0.11,0.97-0.32,1.92-0.65,2.84c-0.28-0.4-0.87-0.61-1.31-0.21c-0.45,0.42-0.92,0.82-1.38,1.23
			C73.07,23.39,74.06,21.94,75.31,20.8z M59.22,29.98c-0.07,0.21-0.05,0.42,0.04,0.6c-0.92,0.88-1.74,1.88-2.43,2.97
			c0.3-0.92,0.6-1.91,0.5-2.84c-0.01-0.11-0.05-0.2-0.1-0.29c0.01-0.01,0.03-0.02,0.04-0.03c1.77-2.23,3.59-4.42,5.43-6.6
			C61.47,25.82,59.98,27.75,59.22,29.98z M63.75,31.71c-0.14,0.12-0.28,0.23-0.42,0.35c0.13-0.2,0.26-0.41,0.4-0.61
			c0.37-0.54,0.89-1.11,1.28-1.73c0.15,0.22,0.39,0.36,0.66,0.38C65.03,30.64,64.39,31.18,63.75,31.71z M64.28,27.4
			c-0.24,0.09-0.47,0.2-0.71,0.3c0.96-1.11,1.9-2.24,2.8-3.41c1.12-1.45,2.11-3.12,3.3-4.57c-1.02,2.78-3.13,5.21-4.29,7.96
			C65.15,27.36,64.71,27.23,64.28,27.4z M67.68,32.12c1.71-2.26,4.02-4.09,5.9-6.23c-0.78,1.25-1.7,2.42-2.23,3.82
			c-0.05,0.14-0.05,0.28-0.02,0.43C70.05,30.65,68.89,31.42,67.68,32.12z M73.38,31.77c-0.25,0.43-0.11,0.88,0.2,1.14
			c-0.4,0.31-0.79,0.62-1.2,0.93c-0.25,0.19-0.77,0.7-1.06,0.79c-0.03,0.05-0.06,0.1-0.09,0.15c0.02-0.28,0.1-0.54,0.23-0.79
			c0.53-1.11,1.65-1.88,2.35-2.89C73.66,31.31,73.52,31.54,73.38,31.77z M73.9,30.96c0.19-0.31,0.15-0.64-0.01-0.9
			c0.13-0.14,0.27-0.28,0.4-0.43c0.98-1.07,1.96-2.13,2.94-3.2c1.17-1.28,2.33-2.7,3.71-3.79C79.24,25.79,75.95,27.99,73.9,30.96z"
			/>
		<g>
			<path class="st5" d="M49.19,32.28c0.02,0,0.05,0.01,0.07,0.01c0,0,0,0,0,0C49.19,32.27,49.18,32.27,49.19,32.28z"/>
			<g>
				<path class="st5" d="M57.79,36.28c0.01,0,0.02,0.01,0.04,0.01c0-0.01-0.03-0.02-0.09-0.03c0.01,0,0.01,0.01,0.02,0.01
					C57.77,36.27,57.78,36.28,57.79,36.28z"/>
				<path class="st5" d="M57.38,34.87c0,0.01,0,0.01,0,0.02c0-0.01,0-0.02,0.01-0.04C57.38,34.86,57.38,34.86,57.38,34.87
					C57.38,34.87,57.38,34.87,57.38,34.87z"/>
				<path class="st5" d="M91.14,16.87c-0.15,0.01-0.29,0.02-0.44,0.03c-0.02,0-0.04,0-0.05,0c-0.05,0.01-0.09,0.02-0.14,0.04
					c-0.03,0.01-0.06,0.02-0.09,0.04c-0.06,0.03-0.13,0.06-0.19,0.09c-0.03,0.02-0.06,0.04-0.09,0.05c-0.05,0.04-0.1,0.08-0.15,0.12
					c-0.01,0.01-0.03,0.03-0.04,0.04c0,0,0,0,0,0c0,0,0,0,0,0.01c-0.01,0.06-0.01,0.11-0.01,0.17c0,0.01,0,0.04,0,0.07
					c0,0.02,0.01,0.04,0.01,0.06c0.03,0.06,0.06,0.12,0.09,0.17c0.02,0.03,0.02,0.07,0.03,0.1c0.56,0.59-0.62,1.38-1.18,1.5
					c-0.87,0.19-1.86,0.05-2.72-0.12c-1.66-0.31-3.24-0.91-4.86-1.38c-1.65-0.48-3.3-0.74-5.02-0.73c-1.15,0-2.35,0-3.51,0.16
					c0.22-0.93,0.17-1.92-0.18-2.85c-0.24-0.62-0.94-0.87-1.46-0.39c-2.02,1.87-4.06,3.54-6.59,4.68c-2.52,1.13-5.21,1.84-7.77,2.88
					c-1.93,0.79-4.14,1.73-5.03,3.77c-0.07,0.17-0.13,0.35-0.19,0.53c-0.04-0.05-0.07-0.1-0.1-0.14c-0.94-1.05-2.75-1.27-3.55,0.07
					c-0.34,0.58-0.43,1.33-0.44,1.99c0,0.11,0.01,0.21,0.01,0.32c-0.27-0.05-0.54-0.06-0.82-0.02c-1.25,0.2-1.8,1.59-1.5,2.71
					c0.27,1,1.03,1.84,1.88,2.4c0.86,0.57,1.94,0.86,2.97,0.78c-0.12,0.17-0.24,0.34-0.36,0.51c-0.43,0.62-0.96,1.24-1.23,1.96
					c-0.53,1.4,0.03,2.95,0.7,4.2c0.78,1.45,1.79,2.79,2.7,4.16c0.97,1.45,1.93,2.9,2.9,4.36c0.02,0.03,0.04,0.04,0.06,0.06
					c0.2,0.31,0.54,0.5,0.94,0.4c0.39-0.1,0.73-0.56,0.64-0.98c0-0.01-0.01-0.03-0.01-0.04c0-0.01,0-0.03-0.01-0.05
					c-0.71-1.87-0.78-4.02-0.87-6c-0.08-1.86,0.03-3.69,0.76-5.42c0-0.01,0-0.02,0-0.03c0.38,0.48,0.91,0.8,1.56,0.86
					c0.45,0.04,0.89-0.42,0.88-0.86c-0.02-0.48-0.35-0.8-0.81-0.87c0,0-0.01,0-0.01,0c0,0,0.01,0,0.01,0c-0.01,0-0.01,0-0.01,0
					c-0.01,0-0.02,0-0.03-0.01c-0.01,0-0.01-0.01-0.02-0.01c-0.02-0.01-0.04-0.02-0.05-0.02c0.02,0,0.02,0,0.04,0.01
					c-0.03-0.02-0.05-0.03-0.08-0.05c-0.01-0.01-0.02-0.02-0.03-0.02c-0.02-0.02-0.05-0.04-0.07-0.06c0,0,0,0,0-0.01
					c-0.02-0.03-0.03-0.05-0.05-0.07c-0.03-0.05-0.06-0.1-0.08-0.14c0.01,0.03,0.01,0.04,0-0.01c0,0,0,0,0-0.01
					c-0.01-0.02-0.02-0.07-0.04-0.08c0.01,0.01,0.02,0.04,0.03,0.06c-0.02-0.06-0.03-0.11-0.05-0.17c-0.01-0.03-0.01-0.05-0.02-0.08
					c-0.01-0.15-0.02-0.3-0.01-0.46c0-0.08,0.01-0.15,0.02-0.23c0-0.01,0-0.03,0.01-0.04c-0.01,0.03-0.01,0.04,0-0.02
					c0-0.02,0.01-0.03,0.01-0.05c0,0.01,0,0.02,0,0.04c0.03-0.17,0.06-0.33,0.09-0.5c0.09-0.45-0.13-0.96-0.61-1.07
					c-0.43-0.1-0.98,0.13-1.07,0.61c-0.15,0.76-0.26,1.55-0.06,2.31c-0.05-0.02-0.09-0.06-0.14-0.07c-0.5-0.14-0.89,0.18-1.07,0.61
					c-0.78,1.85-0.91,3.89-0.82,5.87c0.03,0.72,0.06,1.46,0.12,2.2c-0.88-1.31-1.75-2.62-2.61-3.95c-0.65-1-1.67-2.54-1.16-3.79
					c0.26-0.63,0.78-1.21,1.17-1.77c0.26-0.38,0.53-0.76,0.79-1.14c0.24-0.07,0.44-0.25,0.52-0.56c0.03-0.1,0.05-0.2,0.07-0.31
					c0.31-0.17,0.54-0.5,0.46-0.94c-0.05-0.28-0.11-0.59-0.15-0.91c0.09-0.99,0.06-1.99-0.16-2.95c0.08-1.24,0.38-2.42,1.11-3.23
					c1.52-1.66,4.26-2.33,6.31-3.04c2.19-0.76,4.41-1.48,6.46-2.56c1.65-0.87,3.1-2.02,4.49-3.25c-0.04,0.55-0.23,1.09-0.58,1.6
					c-0.08,0.1-0.14,0.21-0.17,0.32c-0.07,0.18-0.08,0.35-0.02,0.5c0.11,0.43,0.48,0.77,1.02,0.58c1.14-0.4,2.31-0.45,3.5-0.49
					c1.2-0.04,2.4-0.07,3.59,0.1c2.16,0.32,4.18,1.19,6.28,1.71c1.83,0.45,4.22,0.9,5.88-0.25c1.24-0.85,1.61-2.54,0.77-3.66
					C91.33,16.84,91.24,16.86,91.14,16.87z M49.28,32.29c0,0-0.01,0-0.01,0l-0.01,0c-0.02,0-0.05-0.01-0.07-0.01
					c-0.02,0-0.04-0.01-0.06-0.01c-0.17-0.03-0.34-0.08-0.51-0.14c-0.06-0.02-0.12-0.04-0.18-0.07c-0.01-0.01-0.13-0.06-0.17-0.08
					c-0.16-0.08-0.31-0.17-0.45-0.27c-0.06-0.04-0.2-0.16-0.08-0.05c-0.08-0.07-0.16-0.13-0.24-0.21c-0.12-0.11-0.22-0.24-0.33-0.36
					c0,0,0,0,0,0c-0.02-0.02-0.03-0.05-0.05-0.07c-0.07-0.1-0.14-0.21-0.2-0.32c-0.02-0.03-0.07-0.17-0.08-0.18
					c-0.03-0.08-0.04-0.16-0.07-0.25c0-0.01,0,0,0-0.01c0-0.01,0,0,0-0.01c0-0.03,0-0.08,0-0.11c0-0.01,0-0.01,0-0.02
					c0.01-0.04,0.03-0.09,0.03-0.13c0,0,0,0,0,0c0.01-0.02,0.03-0.05,0.04-0.07c0-0.01,0,0,0-0.01c0.01-0.01,0.03-0.03,0.04-0.04
					c0.02-0.01,0.05-0.02,0.07-0.03c0,0,0.01,0,0.01,0c0.01,0,0.01,0,0.01,0c0,0,0,0,0.01,0c0.01,0,0.07,0.01,0.09,0
					c0.01,0,0.01,0,0.01,0c0.04,0.01,0.31,0.11,0.16,0.04c0.08,0.04,0.16,0.08,0.24,0.13c0.03,0.02,0.07,0.04,0.1,0.06
					c0,0,0.07,0.05,0.1,0.07c0.03,0.02,0.06,0.05,0.07,0.06c0.03,0.03,0.06,0.06,0.1,0.08c0.09,0.08,0.17,0.15,0.25,0.23
					c0.07,0.07,0.14,0.14,0.2,0.22c0.04,0.04,0.07,0.09,0.11,0.13c0.01,0.01,0.01,0.01,0.01,0.02c0.01,0.01,0.02,0.02,0.03,0.04
					c0.32,0.44,0.56,0.93,0.88,1.36C49.33,32.3,49.3,32.29,49.28,32.29C49.27,32.29,49.27,32.29,49.28,32.29z M51.18,31.45
					c-0.01,0.07-0.01,0.13-0.02,0.2c-0.03-0.02-0.04-0.05-0.07-0.06c-0.04-0.02-0.08-0.05-0.12-0.07c-0.01,0-0.01,0-0.01-0.01
					c0,0,0,0,0-0.01c-0.05-0.07-0.12-0.12-0.18-0.19c-0.01-0.02-0.09-0.12-0.11-0.15c-0.07-0.1-0.13-0.21-0.19-0.31
					c-0.27-0.46-0.54-0.89-0.89-1.29c-0.03-0.04-0.07-0.07-0.1-0.11c-0.28-0.78-0.49-1.86-0.12-2.64c0.29-0.61,1.06,0.5,1.21,0.78
					c0.22,0.39,0.37,0.81,0.47,1.23C51.01,29.69,51.07,30.59,51.18,31.45z"/>
				<path class="st5" d="M57.43,35.89C57.43,35.89,57.43,35.89,57.43,35.89c0,0,0-0.01-0.01-0.02c0,0,0,0,0,0.01
					C57.43,35.88,57.43,35.88,57.43,35.89z"/>
				<path class="st5" d="M57.87,36.3c-0.01,0-0.02,0-0.04-0.01c0,0,0,0,0,0C57.85,36.3,57.87,36.3,57.87,36.3z"/>
				<polygon class="st5" points="57.83,36.3 57.83,36.3 57.82,36.3 				"/>
			</g>
		</g>
		<g>
			<path class="st5" d="M39.31,58.14c0.01-0.01,0.02-0.01,0.04-0.02C39.33,58.13,39.32,58.13,39.31,58.14
				C39.31,58.14,39.31,58.14,39.31,58.14z"/>
			<path class="st5" d="M49.02,56.69c-0.41-0.76-0.88-1.49-1.45-2.14c-0.57-0.65-1.18-1.21-2.1-0.93c-0.76,0.23-1.51,0.59-2.24,0.92
				c-0.41-0.9-0.89-1.78-1.42-2.61c-0.02-0.08-0.03-0.15-0.08-0.23c-1.48-2.59-3.02-5.15-4.65-7.65c-0.79-1.22-1.59-2.43-2.42-3.62
				c-0.65-0.95-1.37-1.91-2.34-2.55c-1.72-1.14-4.42-1.13-5.41,0.97c-1.06,2.23,0.24,5.1,1.17,7.14c1.2,2.63,2.56,5.19,4.04,7.68
				c-1.75,0.44-3.2,1.65-4.01,3.24c-0.09,0.12-0.15,0.26-0.18,0.41c-0.04,0.1-0.09,0.2-0.13,0.3c-1.31,0.13-2.53,0.74-3.45,1.68
				c-0.72,0.72-1.64,1.79-1.65,2.88c-0.85,0.48-1.55,1.25-1.73,2.23c-0.26,1.43,0.72,2.93,1.35,4.14c0.34,0.64,0.64,1.32,1.04,1.94
				c0.36,0.57,0.94,0.95,1.57,1.16c0.7,0.23,1.4,0.28,2.08,0.18c1.97,3.4,4.49,6.54,8.77,6.57c2.19,0.02,4.14-0.96,5.96-2.09
				c2.05-1.28,4.03-2.67,5.83-4.27c0.83-0.74-0.21-2.13-1.05-1.39c-1.5,1.34-3.14,2.52-4.82,3.62c-1.7,1.11-3.49,2.27-5.58,2.39
				c-3.63,0.19-5.77-2.6-7.44-5.41c0.02-0.01,0.04-0.02,0.06-0.03c0.01-0.01,0.02-0.02,0.03-0.03c0.95,0.38,2,0.27,3-0.12
				c1.15-0.46,2.34-1.1,2.91-2.24c0.28,0.07,0.56,0.12,0.85,0.12c0.89,0,1.73-0.36,2.42-0.9c-0.24,1.44-0.03,2.93,0.76,4.21
				c0.25,0.4,0.87,0.43,1.22,0.17c0.41-0.31,0.41-0.82,0.17-1.22c-0.77-1.26-0.61-2.93-0.03-4.24c0.67-1.53,1.88-2.75,3.11-3.85
				c0.35-0.31,0.47-0.82,0.17-1.22c-0.19-0.25-0.55-0.38-0.86-0.32c-0.13-0.02-0.27,0-0.4,0.06c-0.28,0.15-0.57,0.26-0.87,0.35
				c-0.04,0.01-0.09,0.02-0.13,0.04c-0.07,0.02-0.14,0.03-0.21,0.05c-0.16,0.03-0.31,0.06-0.47,0.08c-0.32,0.05-0.63,0.08-0.95,0.11
				c-0.15,0.01-0.3,0.03-0.45,0.04c-0.03,0-0.06,0-0.09,0c0,0,0,0-0.01,0l-0.86-2.13c0.06-0.09,0.09-0.19,0.1-0.31
				c0.01-0.17,0.04-0.34,0.07-0.51c0-0.01,0,0,0-0.01c0.02-0.04,0.03-0.08,0.04-0.12c0.03-0.07,0.07-0.15,0.1-0.22
				c0.02-0.03,0.04-0.06,0.06-0.09c0.04-0.06,0.09-0.12,0.14-0.18c0.03-0.03,0.05-0.06,0.08-0.09c0.06-0.04,0.12-0.11,0.17-0.15
				c0.13-0.1,0.26-0.2,0.4-0.29c0.02-0.02,0.05-0.03,0.07-0.05c-0.01,0-0.02,0.01-0.02,0.01c0.01,0,0.02-0.01,0.03-0.02
				c0.01,0,0.01-0.01,0.02-0.01c0.07-0.04,0.04-0.02,0.01,0c0.06-0.03,0.12-0.06,0.18-0.09c0.31-0.15,0.64-0.28,0.97-0.39
				c0.07-0.02,0.13-0.08,0.19-0.12c1.51-0.64,3.02-1.27,4.53-1.91c0.23-0.1,0.57-0.33,0.77-0.24c0.24,0.11,0.55,0.64,0.7,0.84
				c0.45,0.6,0.82,1.25,1.11,1.93c1.2,2.76,1.15,5.82,0.44,8.7c-0.27,1.09,1.46,1.34,1.72,0.26C50.8,63.66,50.71,59.87,49.02,56.69z
				 M25.42,69.97c-0.38-0.15-0.58-0.36-0.78-0.72c-0.27-0.5-0.53-1-0.79-1.51c-0.25-0.48-0.5-0.97-0.73-1.46
				c-0.2-0.44-0.48-0.95-0.46-1.45c0.02-0.43,0.3-0.76,0.65-1c0.67,1.25,1.38,2.48,2.14,3.67c0.53,0.83,1.07,1.75,1.76,2.51
				C26.64,70.2,25.97,70.19,25.42,69.97z M39.88,55.96c-0.06,0.02-0.09,0.06-0.14,0.1c-0.73,0.26-1.47,0.59-2.05,1.11
				c-0.24,0.21-0.44,0.44-0.62,0.7c-0.55-0.7-1.86-0.09-1.48,0.86c0.63,1.57,1.26,3.13,1.89,4.7c0.22,0.54,0.63,1.22,0.47,1.83
				c-0.14,0.55-0.61,1.05-1.04,1.39c-0.46,0.37-1.01,0.63-1.61,0.55c-0.61-0.09-0.91-0.54-1.23-1.03c-0.87-1.34-1.72-2.7-2.42-4.14
				c-0.21-0.42-0.67-0.67-1.13-0.48c-0.41,0.17-0.69,0.71-0.48,1.13c0.67,1.39,1.48,2.7,2.3,4c0.27,0.43,0.54,0.87,0.87,1.25
				c-0.02,0.03-0.05,0.05-0.06,0.09c-0.36,0.8-1.4,1.21-2.17,1.49c-0.93,0.35-1.7,0.22-2.37-0.54c-0.77-0.87-1.39-1.9-2.01-2.88
				c-0.69-1.09-1.33-2.2-1.93-3.34c-0.02-0.05-0.06-0.08-0.09-0.13c-0.01-0.05-0.03-0.1-0.05-0.14c-0.03-0.05-0.06-0.11-0.08-0.16
				c0.01,0.08,0.01,0.07-0.01-0.04c0-0.04,0-0.06-0.01-0.07c0.01-0.05,0.01-0.11,0.02-0.16c-0.02,0.06-0.02,0.05,0.02-0.05
				c0.02-0.06,0.05-0.12,0.08-0.18c0.05-0.09,0.07-0.12,0.15-0.23c0.3-0.41,0.67-0.87,1.01-1.18c0.7-0.64,1.51-0.96,2.43-1.03
				c0.15,0.48,0.39,0.93,0.63,1.37c0.11,0.21,0.24,0.38,0.47,0.48c0.2,0.08,0.47,0.1,0.67,0.01c0.21-0.09,0.39-0.25,0.48-0.47
				c0.08-0.2,0.12-0.47,0.01-0.67c-0.25-0.46-0.49-0.93-0.64-1.44c-0.07-0.31-0.09-0.63-0.11-0.95c0.26-0.52,0.61-1.02,1.02-1.37
				c0.76-0.66,1.65-1.01,2.64-1.09c0.63,0.15,1.38-0.65,0.92-1.39c-1.68-2.74-3.21-5.57-4.54-8.5c-0.64-1.4-3.03-6.74,0.35-6.5
				c1.26,0.09,2.14,1.14,2.83,2.09c0.89,1.22,1.71,2.49,2.54,3.76c1.63,2.5,3.17,5.04,4.66,7.63c0.03,0.12,0.07,0.24,0.14,0.35
				c0.16,0.23,0.31,0.47,0.45,0.71c0.07,0.11,0.13,0.22,0.2,0.34c0.01,0.01,0.01,0.01,0.01,0.02c0,0,0,0,0,0
				c0.04,0.07,0.07,0.13,0.11,0.2c0.23,0.42,0.44,0.86,0.63,1.3C41.04,55.47,40.46,55.72,39.88,55.96z"/>
		</g>
		<g>
			<path class="st5" d="M72.48,40.97C72.48,40.97,72.48,40.97,72.48,40.97C72.55,40.95,72.59,40.91,72.48,40.97z"/>
			<g>
				<path class="st5" d="M88.33,33.65c0-0.01,0-0.04,0-0.04C88.32,33.62,88.32,33.63,88.33,33.65z"/>
				<path class="st5" d="M86.1,35.06C86.11,35.06,86.11,35.06,86.1,35.06c0,0,0,0-0.01,0C86.1,35.06,86.1,35.06,86.1,35.06z"/>
				<path class="st5" d="M99.97,33.44c-1.93-1.09-3.2-2.95-4.11-4.92c-0.88-1.9-1.53-3.89-2.84-5.53c0.21-0.2,0.4-0.42,0.59-0.65
					c0.25-0.32,0.47-0.64,0.6-1.04c0.13-0.39,0.13-0.8,0.11-1.21c-0.04-0.83-0.23-1.57-0.76-2.22c-0.43-0.54-1.08-0.92-1.76-1.05
					c-0.45-0.08-0.96,0.13-1.06,0.62c-0.1,0.43,0.14,0.98,0.62,1.06c0.11,0.02,0.22,0.06,0.33,0.08c0.01,0,0.01,0,0.01,0
					c0.01,0,0.01,0.01,0.02,0.01c0.04,0.02,0.09,0.04,0.13,0.07c0.05,0.03,0.1,0.07,0.16,0.1c0.01,0,0,0,0.01,0
					c0.01,0.01,0.01,0.01,0.02,0.02c0.08,0.08,0.16,0.16,0.24,0.24c0,0,0,0,0,0c0.01,0.01,0,0.01,0.02,0.03
					c0.03,0.04,0.05,0.08,0.08,0.13c0.01,0.01,0.03,0.05,0.04,0.08c0.01,0.03,0.03,0.08,0.04,0.09c0.04,0.12,0.07,0.25,0.09,0.38
					c0,0.03,0.01,0.1,0.01,0.12c0.01,0.08,0.01,0.16,0.02,0.23c0.01,0.14,0.01,0.28,0.01,0.41c0,0.01,0,0.07,0,0.11
					c-0.01,0.03-0.03,0.15-0.03,0.16c-0.01,0.02-0.01,0.03-0.01,0.05c-0.02,0.05-0.05,0.1-0.08,0.15c-0.03,0.06-0.07,0.11-0.11,0.17
					c-0.01,0.01-0.01,0.01-0.02,0.02c-0.16,0.2-0.33,0.41-0.52,0.6c-0.08,0.08-0.17,0.17-0.26,0.24c-0.01-0.01-0.29,0.16-0.14,0.1
					c-0.35,0.15-0.63,0.47-0.62,0.86c0.05,0.1,0.1,0.21,0.16,0.31c0.08,0.07,0.16,0.15,0.23,0.23c0.09,0.1,0.17,0.2,0.25,0.31
					c1.57,1.75,2.16,4.12,3.21,6.18c0.09,0.17,0.18,0.34,0.27,0.5c-0.68-0.19-1.5,0.5-1.01,1.24c0.42,0.63,0.81,1.29,1.13,1.98
					c-0.37-0.18-0.69-0.19-0.95-0.09c-0.07-0.66-0.3-1.31-0.75-1.9c-0.29-0.37-0.75-0.56-1.19-0.3c-0.37,0.22-0.59,0.82-0.3,1.19
					c0.35,0.46,0.49,0.95,0.49,1.43c-2.4-3.2-6.53-4.7-10.49-3.89c-0.28,0.06-0.45,0.22-0.54,0.41c-0.11,0.05-0.21,0.12-0.3,0.21
					c-1.03,0.52-1.96,1.27-2.78,2.1c-0.86,0.87-1.68,1.83-2.31,2.9c-1.04,0.24-2.1,0.4-3.17,0.46c-3.37,0.19-6.84-0.72-9.22-3.23
					c-0.77-0.81-1.99,0.43-1.22,1.25c3.17,3.35,7.95,4.17,12.36,3.52c0.14-0.02,0.27-0.06,0.41-0.08c-0.01,0.02-0.01,0.04-0.02,0.06
					c-0.17,0.61-0.24,1.22-0.23,1.83c-0.12-0.34-0.42-0.56-0.81-0.6c-1.28-0.12-2.58,0.37-3.54,1.24c-0.1-0.21-0.21-0.42-0.33-0.63
					c-0.11-0.19-0.26-0.3-0.42-0.36c-1.55-1.88-4.06-2.76-6.52-2.56c-0.11-0.16-0.26-0.3-0.47-0.34c-0.27-0.05-0.53-0.12-0.78-0.21
					c-0.15-0.07-0.29-0.14-0.42-0.23c-0.07-0.06-0.14-0.13-0.21-0.2c-0.05-0.07-0.09-0.14-0.12-0.21c-0.02-0.05-0.03-0.1-0.04-0.15
					c0-0.05,0-0.11,0-0.16c0.01-0.03,0.01-0.06,0.02-0.08c0.14-0.43-0.17-0.97-0.62-1.06c-0.48-0.11-0.92,0.15-1.07,0.62
					c-0.27,0.85,0.08,1.8,0.7,2.41c0.11,0.11,0.24,0.2,0.37,0.29c-3.21,1.35-5.8,4.24-6.94,7.54c-0.64-0.12-1.18,0.1-1.59,0.75
					c-0.78,1.24-0.81,2.78-0.7,4.19c0.06,0.84,0.11,1.73,0.4,2.52c0.29,0.81,0.84,1.45,1.43,2.05c1.09,1.1,2.23,2.22,3.68,2.84
					c0.24,0.1,0.5,0.12,0.73,0.04c0.51,1.48,1.07,2.94,1.79,4.3c2.36,4.47,7.25,4.53,11.68,4.01c5.1-0.6,10.27-1.2,15.17-2.82
					c2.21-0.73,4.57-1.61,6.47-2.97c1.75-1.26,2.48-2.97,2.64-5.08c0.19-2.5,0.1-5.03-0.12-7.55c0.15-0.03,0.3-0.11,0.43-0.26
					c0.98-1.1,1.96-2.26,2.49-3.66c0.64-1.68,0.23-3.37-0.36-5.01c-0.19-0.53-0.42-1.06-0.66-1.57c0.01-0.04,0.03-0.07,0.04-0.11
					c0.17-0.47,0.2-0.95,0.15-1.43c0.81,0.12,1.64,0.1,2.47-0.11C100.51,34.85,100.62,33.81,99.97,33.44z M90.02,34.04
					c0.3,0.29,0.6,0.6,0.85,0.94c0.22,0.3,0.43,0.62,0.63,0.97c-0.25,0.25-0.54,0.47-0.87,0.63c-0.77,0.37-1.7,0.42-2.52,0.24
					c-0.26-0.05-0.53-0.13-0.8-0.22c0.33-0.11,0.66-0.25,0.97-0.42C89.15,35.72,89.87,34.98,90.02,34.04z M78.92,34.67
					c0.7-0.76,1.48-1.54,2.37-2.09c0.24,0.46,0.37,0.99,0,1.37c-0.57,0.58-1.85,0.81-2.61,1.06c-0.03,0.01-0.05,0.02-0.08,0.02
					C78.71,34.91,78.81,34.79,78.92,34.67z M54.73,48.34c0.27,0.95,0.54,1.89,0.83,2.84C54.99,50.4,54.71,49.46,54.73,48.34z
					 M55.32,54.09c-0.69-0.65-1.61-1.37-1.95-2.29c-0.27-0.72-0.32-1.59-0.34-2.39c0.13,1.14,0.51,2.23,1.31,3.14
					c0.61,0.69,1.36,1.25,2.19,1.69c0.03,0.09,0.06,0.18,0.09,0.27c0.09,0.27,0.18,0.54,0.27,0.81
					C56.33,54.97,55.82,54.55,55.32,54.09z M55.96,46.31c-0.11-0.42-0.44-0.6-0.77-0.61c0.79-2.45,2.51-4.65,4.64-6.01
					c1.65-1.05,3.66-1.64,5.6-1.15c1.71,0.43,3.24,1.6,3.79,3.31c0.02,0.07,0.07,0.12,0.1,0.18c0.79,2.32,0.65,4.95-0.48,7.15
					c-1.39,2.72-4.17,4.36-7.21,4.46c-1.26,0.04-2.52-0.19-3.68-0.69C57.23,50.76,56.56,48.54,55.96,46.31z M93.63,51.63
					c0.04,2.02,0.29,4.58-1.23,6.16c-1.43,1.48-3.79,2.3-5.67,2.98c-4.44,1.61-9.15,2.3-13.82,2.87c-3.91,0.48-9.33,1.6-11.77-2.45
					c-1.12-1.86-1.81-4.06-2.49-6.15c0.24,0.06,0.48,0.12,0.72,0.16c3.75,0.68,7.79-0.67,10.11-3.76c2-2.67,2.57-6.21,1.7-9.38
					c0.02-0.04,0.05-0.08,0.08-0.11c0.01-0.01,0.01-0.01,0.02-0.02c0.03-0.03,0.05-0.06,0.08-0.09c0.06-0.07,0.12-0.14,0.18-0.2
					c0.06-0.07,0.13-0.13,0.2-0.19c0.03-0.02,0.06-0.05,0.08-0.07c0,0,0,0,0,0c0.15-0.1,0.3-0.21,0.46-0.3
					c0.07-0.04,0.14-0.08,0.22-0.11c-0.01,0-0.01,0-0.02,0c0.04-0.01,0.08-0.03,0.11-0.04c0.17-0.06,0.35-0.12,0.53-0.15
					c0.04-0.01,0.08-0.02,0.12-0.02c0.01,0,0.03,0,0.05-0.01c0.04,0,0.14-0.01,0.17-0.02c0.19-0.01,0.39-0.01,0.58,0.01
					c0.38,0.04,0.74-0.3,0.83-0.67c0.25,2.93,2.39,5.58,5.11,6.76c1.85,0.81,3.9,1.06,5.91,0.92c2-0.14,4.23-0.52,5.9-1.71
					c0.56-0.4,1.01-0.87,1.38-1.39C93.41,46.97,93.59,49.3,93.63,51.63z M92.21,37.71c0.16,1.1,0.32,2.19,0.47,3.29
					c-0.1,1.05-0.44,2.05-1.1,2.87c-1.09,1.35-2.97,1.78-4.61,2.03c-1.6,0.24-3.28,0.24-4.86-0.15c-2.92-0.73-5.67-3.18-5.56-6.4
					c0.03-0.73,0.23-1.42,0.53-2.07c0.47-0.12,0.94-0.24,1.4-0.38c1.14-0.35,2.4-0.69,3.44-1.27c1.51-0.84,1.52-2.37,0.92-3.69
					c0.33-0.08,0.67-0.13,1.02-0.12c0.19,0.01,0.33-0.05,0.46-0.13c1.47,0.05,2.91,0.48,4.17,1.21c-0.16,0.21-0.23,0.47-0.17,0.76
					c0.02,0.1,0,0.04,0-0.01c0,0.04,0,0.09,0,0.11c-0.01,0.03-0.01,0.07-0.02,0.1c-0.01,0.03-0.01,0.03-0.01,0.05
					c-0.02,0.03-0.03,0.07-0.04,0.07c-0.02,0.04-0.04,0.07-0.07,0.11c0,0.01,0,0,0,0.01c-0.07,0.07-0.14,0.15-0.21,0.22
					c-0.02,0.02-0.05,0.04-0.08,0.07c-0.01,0,0,0-0.02,0.01c-0.18,0.12-0.36,0.23-0.55,0.32c-0.08,0.04-0.16,0.08-0.24,0.12
					c-0.01,0.01-0.05,0.02-0.08,0.03c-0.01,0-0.02,0.01-0.03,0.01c-0.17,0.06-0.34,0.12-0.51,0.16c-0.04,0.01-0.07,0.01-0.11,0.02
					c-0.08,0-0.17,0-0.25,0c0.01,0,0.02,0,0.03,0.01c-0.01-0.01-0.02-0.01-0.04-0.01c0,0-0.01,0-0.01,0c-0.09,0-0.04-0.01,0,0
					c-0.03,0-0.06-0.01-0.07-0.01c-0.03-0.01-0.19-0.03-0.07-0.01c0.1,0.01-0.02-0.01-0.06-0.03c-0.38-0.2-0.88-0.1-1.13,0.26
					c-0.03,0.01-0.06,0.01-0.09,0.03c-0.38,0.23-0.57,0.8-0.3,1.19c1.5,2.18,4.87,2.71,7.15,1.58c0.25-0.12,0.48-0.27,0.7-0.43
					C92.21,37.66,92.21,37.68,92.21,37.71z M94.09,37.8c0.05-0.08,0.11-0.16,0.13-0.27c0.12-0.45,0.24-0.9,0.35-1.35
					c0.02-0.09,0.05-0.24,0.08-0.4c0.13,0.21,0.25,0.42,0.37,0.63c0.06,0.1,0.11,0.21,0.16,0.31c-0.32,0.63-0.63,1.27-0.93,1.9
					C94.21,38.34,94.16,38.07,94.09,37.8z M96.73,41.17c0.1,1.49-0.81,2.76-1.75,3.86c-0.12-0.98-0.26-1.96-0.39-2.93
					c0.38-0.96,0.8-1.9,1.25-2.83c0.09-0.18,0.18-0.35,0.27-0.53C96.41,39.52,96.68,40.36,96.73,41.17z"/>
			</g>
		</g>
		<path class="st5" d="M67.95,44.67c0.01-0.23-0.06-0.46-0.22-0.64c-0.14-0.16-0.38-0.28-0.59-0.29c-0.23,0-0.47,0.06-0.64,0.22
			c-0.16,0.15-0.28,0.36-0.29,0.59c-0.02,0.77,0.07,1.54,0.29,2.28c0.07,0.23,0.17,0.42,0.37,0.55c0.18,0.12,0.44,0.18,0.65,0.13
			c0.22-0.06,0.43-0.17,0.55-0.37c0.11-0.19,0.19-0.43,0.13-0.65c-0.13-0.43-0.2-0.87-0.24-1.31C67.96,45,67.95,44.83,67.95,44.67z"
			/>
		<path class="st5" d="M80.88,40.46c-0.2-0.41-0.77-0.61-1.17-0.38c-0.42,0.24-0.59,0.73-0.38,1.17c0.11,0.22,0.2,0.45,0.28,0.68
			c0.14,0.44,0.25,0.89,0.32,1.35c0.03,0.21,0.2,0.44,0.37,0.55c0.18,0.12,0.44,0.18,0.65,0.13c0.48-0.12,0.74-0.54,0.68-1.03
			C81.52,42.07,81.26,41.23,80.88,40.46z"/>
		<path class="st5" d="M84.61,49.45c-0.23-0.23-0.47-0.39-0.77-0.51c-0.19-0.08-0.38-0.1-0.57-0.11c-0.15-0.32-0.45-0.53-0.89-0.39
			c-0.53,0.17-1.04,0.39-1.53,0.63c-0.24,0.02-0.47,0.14-0.63,0.33c-1.24,0.65-2.44,1.38-3.84,1.67c-2.28,0.49-4.64,0.19-6.92-0.08
			c-0.23-0.03-0.41,0.04-0.56,0.14c-0.61,0.08-1.22,0.3-1.57,0.85c-0.37,0.6-0.25,1.35-0.15,2.01c0.1,0.65,0.33,1.31,0.8,1.79
			c0.45,0.46,1.03,0.72,1.61,0.97c0.2,0.08,0.42,0.06,0.62-0.03c0.19,0.83,0.51,1.58,1.31,2.06c1.76,1.06,3.9,0.72,5.81,0.29
			c0.2,0.35,0.5,0.6,1,0.61c0.75,0.01,1.56-0.27,2.26-0.53c0.71-0.26,1.37-0.62,1.99-1.06c0.61-0.42,1.1-0.89,1.16-1.68
			c0.05-0.76-0.1-1.57-0.28-2.31c-0.01-0.03-0.02-0.06-0.02-0.08c0.14-0.03,0.28-0.08,0.41-0.18c0.82-0.6,1.42-1.68,1.4-2.71
			C85.23,50.52,85.05,49.9,84.61,49.45z M81.95,55.53c0.03,0.23,0.1,0.54,0.04,0.77c-0.02,0.06-0.14,0.17-0.23,0.24
			c-0.87,0.68-1.94,1.13-3.02,1.33c-0.01,0-0.04,0.01-0.06,0.01c-0.08-0.25-0.16-0.5-0.25-0.75l-0.62-1.88
			c-0.15-0.45-0.53-0.78-1.03-0.68c-0.42,0.09-0.82,0.58-0.68,1.03c0.2,0.61,0.4,1.21,0.6,1.82c-1.36,0.31-2.93,0.6-4.16-0.04
			c-0.3-0.16-0.46-0.3-0.56-0.61c-0.14-0.47-0.21-0.97-0.28-1.46c-0.11-0.78-0.15-1.57-0.16-2.35c1.64,0.14,3.29,0.17,4.92-0.14
			c1.12-0.21,2.19-0.61,3.2-1.15c0.28-0.15,0.56-0.31,0.84-0.47c0.39,0.82,0.76,1.65,1.03,2.51C81.73,54.3,81.87,54.91,81.95,55.53z
			"/>
	</g>
</g>
</svg>
