<?xml version="1.0" encoding="utf-8"?>
<!-- Generator: Adobe Illustrator 28.2.0, SVG Export Plug-In . SVG Version: 6.00 Build 0)  -->
<svg version="1.1" id="Camada_1" xmlns="http://www.w3.org/2000/svg" xmlns:xlink="http://www.w3.org/1999/xlink" x="0px" y="0px"
	 viewBox="0 0 28 28" style="enable-background:new 0 0 28 28;" xml:space="preserve">
<style type="text/css">
	.st0{fill:#FEF1E5;}
</style>
<g>
	<g>
		<path class="st0" d="M24.6,0H3.4C1.5,0,0,1.5,0,3.4v21.1C0,26.5,1.5,28,3.4,28h21.1c1.9,0,3.4-1.5,3.4-3.4V3.4
			C28,1.5,26.5,0,24.6,0z M22.2,9l-7.6,5.1c-0.1,0.1-0.1,0.1-0.2,0L6.7,9H22.2z M22.3,19.9H6.5c-0.5,0-0.9-0.4-0.9-0.9v-8.4l7.6,5.1
			c0.4,0.2,0.8,0.4,1.2,0.4s0.8-0.1,1.2-0.4l7.6-5.2V19C23.3,19.5,22.9,19.9,22.3,19.9z"/>
	</g>
</g>
</svg>
