<?xml version="1.0" encoding="utf-8"?>
<!-- Generator: Adobe Illustrator 28.2.0, SVG Export Plug-In . SVG Version: 6.00 Build 0)  -->
<svg version="1.1" id="Camada_1" xmlns="http://www.w3.org/2000/svg" xmlns:xlink="http://www.w3.org/1999/xlink" x="0px" y="0px"
	 viewBox="0 0 28 28" style="enable-background:new 0 0 28 28;" xml:space="preserve">
<style type="text/css">
	.st0{fill:#C01820;}
</style>
<g>
	<path class="st0" d="M24.57,0H3.43C1.54,0,0,1.54,0,3.43v21.13C0,26.46,1.54,28,3.43,28h21.13c1.9,0,3.43-1.54,3.43-3.43V3.43
		C28,1.54,26.46,0,24.57,0z M22.16,8.97l-7.62,5.14c-0.08,0.06-0.12,0.06-0.2,0L6.71,8.97H22.16z M22.34,19.91H6.52
		c-0.51,0-0.92-0.41-0.92-0.92v-8.4l7.63,5.15c0.38,0.25,0.79,0.38,1.2,0.38c0.41,0,0.82-0.13,1.2-0.38l7.63-5.15v8.4
		C23.26,19.5,22.85,19.91,22.34,19.91z"/>
</g>
</svg>
