<?xml version="1.0" encoding="utf-8"?>
<!-- Generator: Adobe Illustrator 28.2.0, SVG Export Plug-In . SVG Version: 6.00 Build 0)  -->
<svg version="1.1" id="Camada_1" xmlns="http://www.w3.org/2000/svg" xmlns:xlink="http://www.w3.org/1999/xlink" x="0px" y="0px"
	 viewBox="0 0 28 28" style="enable-background:new 0 0 28 28;" xml:space="preserve">
<style type="text/css">
	.st0{fill:#C01820;}
</style>
<g>
	<path class="st0" d="M24.57,0H3.44C1.54,0,0,1.54,0,3.44v21.13C0,26.46,1.54,28,3.44,28h21.13c1.9,0,3.43-1.54,3.43-3.43V3.44
		C28,1.54,26.46,0,24.57,0z M9.77,22.1c0,0.37-0.3,0.67-0.67,0.67H6.35c-0.37,0-0.67-0.3-0.67-0.67V11.67c0-0.37,0.3-0.67,0.67-0.67
		H9.1c0.37,0,0.67,0.3,0.67,0.67V22.1z M7.77,10.11c-1.41,0-2.55-1.14-2.55-2.55s1.14-2.55,2.55-2.55s2.55,1.14,2.55,2.55
		S9.18,10.11,7.77,10.11z M22.96,22.14c0,0.37-0.3,0.67-0.67,0.67h-2.76c-0.37,0-0.67-0.3-0.67-0.67v-6.11c0,0-0.08-1.88-1.65-1.88
		c-1.47,0-2.05,1-2.05,2.72v5.21c0,0.37-0.3,0.67-0.67,0.67h-2.76c-0.37,0-0.67-0.3-0.67-0.67V11.67c0-0.37,0.3-0.67,0.67-0.67h2.76
		c0.37,0,0.67,0.3,0.67,0.67v0.41c0.67-0.69,1.72-1.27,3.35-1.27c2.09,0,3.21,1.04,3.8,2.05c0.44,0.75,0.64,1.63,0.64,2.5l0,0.45
		V22.14z"/>
</g>
</svg>
