<?xml version="1.0" encoding="utf-8"?>
<!-- Generator: Adobe Illustrator 28.2.0, SVG Export Plug-In . SVG Version: 6.00 Build 0)  -->
<svg version="1.1" id="Camada_1" xmlns="http://www.w3.org/2000/svg" xmlns:xlink="http://www.w3.org/1999/xlink" x="0px" y="0px"
	 viewBox="0 0 28 28" style="enable-background:new 0 0 28 28;" xml:space="preserve">
<style type="text/css">
	.st0{fill:#FEF1E5;}
</style>
<g>
	<g>
		<path class="st0" d="M24.6,0H3.4C1.5,0,0,1.5,0,3.4v21.1C0,26.5,1.5,28,3.4,28h21.1c1.9,0,3.4-1.5,3.4-3.4V3.4
			C28,1.5,26.5,0,24.6,0z M9.8,22.1c0,0.4-0.3,0.7-0.7,0.7H6.3c-0.4,0-0.7-0.3-0.7-0.7V11.7C5.7,11.3,6,11,6.3,11h2.8
			c0.4,0,0.7,0.3,0.7,0.7V22.1z M7.8,10.1c-1.4,0-2.5-1.1-2.5-2.6S6.4,5,7.8,5s2.6,1.1,2.6,2.6S9.2,10.1,7.8,10.1z M23,22.1
			c0,0.4-0.3,0.7-0.7,0.7h-2.8c-0.4,0-0.7-0.3-0.7-0.7V16c0,0-0.1-1.9-1.6-1.9c-1.5,0-2.1,1-2.1,2.7v5.2c0,0.4-0.3,0.7-0.7,0.7h-2.8
			c-0.4,0-0.7-0.3-0.7-0.7V11.7c0-0.4,0.3-0.7,0.7-0.7h2.8c0.4,0,0.7,0.3,0.7,0.7v0.4c0.7-0.7,1.7-1.3,3.3-1.3c2.1,0,3.2,1,3.8,2.1
			c0.4,0.8,0.6,1.6,0.6,2.5v0.4L23,22.1L23,22.1z"/>
	</g>
</g>
</svg>
