<?xml version="1.0" encoding="utf-8"?>
<!-- Generator: Adobe Illustrator 28.2.0, SVG Export Plug-In . SVG Version: 6.00 Build 0)  -->
<svg version="1.1" id="Camada_1" xmlns="http://www.w3.org/2000/svg" xmlns:xlink="http://www.w3.org/1999/xlink" x="0px" y="0px"
	 viewBox="0 0 502 15" style="enable-background:new 0 0 502 15;" xml:space="preserve">
<style type="text/css">
	.st0{fill:#1C1313;}
</style>
<g>
	<g>
		<rect y="0" class="st0" width="7.86" height="7.5"/>
		<rect x="7.86" y="7.5" class="st0" width="7.86" height="7.5"/>
		<rect x="15.73" y="0" class="st0" width="7.86" height="7.5"/>
		<rect x="23.59" y="7.5" class="st0" width="7.86" height="7.5"/>
		<rect x="31.46" y="0" class="st0" width="7.86" height="7.5"/>
		<rect x="39.32" y="7.5" class="st0" width="7.86" height="7.5"/>
		<rect x="47.18" y="0" class="st0" width="7.86" height="7.5"/>
		<rect x="55.05" y="7.5" class="st0" width="7.86" height="7.5"/>
	</g>
	<g>
		<rect x="62.91" y="0" class="st0" width="7.86" height="7.5"/>
		<rect x="70.78" y="7.5" class="st0" width="7.86" height="7.5"/>
		<rect x="78.64" y="0" class="st0" width="7.86" height="7.5"/>
		<rect x="86.5" y="7.5" class="st0" width="7.86" height="7.5"/>
		<rect x="94.37" y="0" class="st0" width="7.86" height="7.5"/>
		<rect x="102.23" y="7.5" class="st0" width="7.86" height="7.5"/>
		<rect x="110.1" y="0" class="st0" width="7.86" height="7.5"/>
		<rect x="117.96" y="7.5" class="st0" width="7.86" height="7.5"/>
	</g>
	<g>
		<rect x="125.83" y="0" class="st0" width="7.86" height="7.5"/>
		<rect x="133.69" y="7.5" class="st0" width="7.86" height="7.5"/>
		<rect x="141.55" y="0" class="st0" width="7.86" height="7.5"/>
		<rect x="149.42" y="7.5" class="st0" width="7.86" height="7.5"/>
		<rect x="157.28" y="0" class="st0" width="7.86" height="7.5"/>
		<rect x="165.15" y="7.5" class="st0" width="7.86" height="7.5"/>
		<rect x="173.01" y="0" class="st0" width="7.86" height="7.5"/>
		<rect x="180.87" y="7.5" class="st0" width="7.86" height="7.5"/>
	</g>
	<g>
		<rect x="188.74" y="0" class="st0" width="7.86" height="7.5"/>
		<rect x="196.6" y="7.5" class="st0" width="7.86" height="7.5"/>
		<rect x="204.47" y="0" class="st0" width="7.86" height="7.5"/>
		<rect x="212.33" y="7.5" class="st0" width="7.86" height="7.5"/>
		<rect x="220.19" y="0" class="st0" width="7.86" height="7.5"/>
		<rect x="228.06" y="7.5" class="st0" width="7.86" height="7.5"/>
		<rect x="235.92" y="0" class="st0" width="7.86" height="7.5"/>
		<rect x="243.79" y="7.5" class="st0" width="7.86" height="7.5"/>
	</g>
	<g>
		<rect x="251.65" y="0" class="st0" width="7.86" height="7.5"/>
		<rect x="259.51" y="7.5" class="st0" width="7.86" height="7.5"/>
		<rect x="267.38" y="0" class="st0" width="7.86" height="7.5"/>
		<rect x="275.24" y="7.5" class="st0" width="7.86" height="7.5"/>
		<rect x="283.11" y="0" class="st0" width="7.86" height="7.5"/>
		<rect x="290.97" y="7.5" class="st0" width="7.86" height="7.5"/>
		<rect x="298.84" y="0" class="st0" width="7.86" height="7.5"/>
		<rect x="306.7" y="7.5" class="st0" width="7.86" height="7.5"/>
	</g>
	<g>
		<rect x="314.56" y="0" class="st0" width="7.86" height="7.5"/>
		<rect x="322.43" y="7.5" class="st0" width="7.86" height="7.5"/>
		<rect x="330.29" y="0" class="st0" width="7.86" height="7.5"/>
		<rect x="338.16" y="7.5" class="st0" width="7.86" height="7.5"/>
		<rect x="346.02" y="0" class="st0" width="7.86" height="7.5"/>
		<rect x="353.88" y="7.5" class="st0" width="7.86" height="7.5"/>
		<rect x="361.75" y="0" class="st0" width="7.86" height="7.5"/>
		<rect x="369.61" y="7.5" class="st0" width="7.86" height="7.5"/>
	</g>
	<g>
		<rect x="377.48" y="0" class="st0" width="7.86" height="7.5"/>
		<rect x="385.34" y="7.5" class="st0" width="7.86" height="7.5"/>
		<rect x="393.2" y="0" class="st0" width="7.86" height="7.5"/>
		<rect x="401.07" y="7.5" class="st0" width="7.86" height="7.5"/>
		<rect x="408.93" y="0" class="st0" width="7.86" height="7.5"/>
		<rect x="416.8" y="7.5" class="st0" width="7.86" height="7.5"/>
		<rect x="424.66" y="0" class="st0" width="7.86" height="7.5"/>
		<rect x="432.52" y="7.5" class="st0" width="7.86" height="7.5"/>
	</g>
	<g>
		<rect x="439.09" y="0" class="st0" width="7.86" height="7.5"/>
		<rect x="446.95" y="7.5" class="st0" width="7.86" height="7.5"/>
		<rect x="454.82" y="0" class="st0" width="7.86" height="7.5"/>
		<rect x="462.68" y="7.5" class="st0" width="7.86" height="7.5"/>
		<rect x="470.54" y="0" class="st0" width="7.86" height="7.5"/>
		<rect x="478.41" y="7.5" class="st0" width="7.86" height="7.5"/>
		<rect x="486.27" y="0" class="st0" width="7.86" height="7.5"/>
		<rect x="494.14" y="7.5" class="st0" width="7.86" height="7.5"/>
	</g>
</g>
</svg>
