<?xml version="1.0" encoding="utf-8"?>
<!-- Generator: Adobe Illustrator 28.2.0, SVG Export Plug-In . SVG Version: 6.00 Build 0)  -->
<svg version="1.1" id="Camada_1" xmlns="http://www.w3.org/2000/svg" xmlns:xlink="http://www.w3.org/1999/xlink" x="0px" y="0px"
	 viewBox="0 0 28 28" style="enable-background:new 0 0 28 28;" xml:space="preserve">
<style type="text/css">
	.st0{fill:#FEF1E5;}
</style>
<g>
	<g>
		<g>
			<path class="st0" d="M24.6,0H3.4C1.5,0,0,1.5,0,3.4v21.1C0,26.5,1.5,28,3.4,28h21.1c1.9,0,3.4-1.5,3.4-3.4V3.4
				C28,1.5,26.5,0,24.6,0z M14,22.6c-1.4,0-2.7-0.3-3.8-0.9l-4,0.9c-0.1,0-0.1,0-0.2,0c-0.5,0-0.8-0.5-0.7-0.9l1-3.6
				c-0.7-1.2-1.1-2.7-1.1-4.2c0-4.8,3.9-8.7,8.7-8.7c4.8,0,8.7,3.9,8.7,8.7C22.7,18.7,18.8,22.6,14,22.6z"/>
		</g>
		<g>
			<path class="st0" d="M14,7.5c-3.5,0-6.4,2.9-6.4,6.4C7.6,15,7.9,16,8.4,17c0.3,0.5,0.4,1.2,0.2,1.8l-0.3,1l1.4-0.3
				c0.2,0,0.3-0.1,0.5-0.1c0.4,0,0.7,0.1,1,0.2c0.9,0.4,1.8,0.6,2.8,0.6c3.5,0,6.4-2.9,6.4-6.4C20.4,10.4,17.5,7.5,14,7.5z
				 M12.4,16.6l-1-0.9c-3.5-3.1-1.4-7-0.1-5.8c1.3,1.2,1.3,2.3,0.8,2.7c-0.3,0.2-0.2,0.6-0.1,0.9c0.4,1.1,1.3,1.8,2.3,2.1
				c0.5,0.1,0.9,0.2,1.1-0.2c0.3-0.6,1.4-0.7,2.8,0.4C19.6,17,15.9,19.7,12.4,16.6z"/>
		</g>
	</g>
</g>
</svg>
