<?xml version="1.0" encoding="utf-8"?>
<!-- Generator: Adobe Illustrator 28.2.0, SVG Export Plug-In . SVG Version: 6.00 Build 0)  -->
<svg version="1.1" id="Camada_1" xmlns="http://www.w3.org/2000/svg" xmlns:xlink="http://www.w3.org/1999/xlink" x="0px" y="0px"
	 viewBox="0 0 28 28" style="enable-background:new 0 0 28 28;" xml:space="preserve">
<style type="text/css">
	.st0{fill:#C01820;}
</style>
<g>
	<g>
		<path class="st0" d="M24.57,0H3.43C1.54,0,0,1.54,0,3.43v21.13C0,26.46,1.54,28,3.43,28h21.13c1.9,0,3.43-1.54,3.43-3.43V3.43
			C28,1.54,26.46,0,24.57,0z M14,22.64c-1.37,0-2.66-0.32-3.81-0.88l-4.04,0.9c-0.05,0.01-0.11,0.02-0.16,0.02
			c-0.46,0-0.83-0.45-0.69-0.93l1.05-3.64c-0.69-1.25-1.08-2.68-1.08-4.21c0-4.82,3.91-8.74,8.74-8.74c4.82,0,8.74,3.91,8.74,8.74
			C22.74,18.73,18.82,22.64,14,22.64z"/>
	</g>
	<g>
		<path class="st0" d="M14,7.53c-3.52,0-6.38,2.86-6.38,6.38c0,1.07,0.27,2.13,0.79,3.07c0.3,0.55,0.37,1.19,0.2,1.79l-0.29,1
			l1.36-0.3c0.17-0.04,0.34-0.06,0.51-0.06c0.35,0,0.71,0.08,1.03,0.24c0.88,0.43,1.82,0.65,2.78,0.65c3.52,0,6.38-2.86,6.38-6.38
			C20.38,10.39,17.52,7.53,14,7.53z M12.42,16.62l-0.99-0.88c-3.48-3.08-1.35-7.04-0.1-5.8c1.26,1.25,1.28,2.32,0.75,2.7
			c-0.26,0.19-0.24,0.55-0.1,0.93c0.36,1.05,1.26,1.83,2.33,2.14c0.48,0.14,0.93,0.16,1.09-0.16c0.31-0.57,1.37-0.7,2.78,0.38
			C19.57,17.01,15.94,19.66,12.42,16.62z"/>
	</g>
</g>
</svg>
